<svg width="299" height="192" viewBox="0 0 299 192" fill="none" xmlns="http://www.w3.org/2000/svg">
<g opacity="0.5">
<path d="M177.348 175.646C177.713 172.555 179.576 169.899 182.334 168.543C185.09 167.188 188.294 167.35 190.905 168.978L197.196 172.902C198.24 173.552 199.033 174.508 199.49 175.662C199.946 176.818 200.023 178.065 199.712 179.269C199.401 180.474 198.731 181.522 197.775 182.3C196.819 183.078 195.666 183.514 194.442 183.559L194.36 183.562C191.29 183.699 188.392 185.136 186.397 187.516C185.883 188.129 185.26 188.618 184.562 188.961C184.182 189.148 183.779 189.292 183.358 189.391C182.164 189.67 180.941 189.554 179.818 189.054C178.697 188.555 177.782 187.719 177.174 186.638C176.566 185.557 176.322 184.332 176.468 183.095L177.348 175.646Z" fill="#EFEFEF"/>
<path d="M194.084 167.615C192.802 167.726 191.559 167.237 190.584 166.239C189.657 165.289 189.082 163.98 188.967 162.555C188.853 161.129 189.209 159.741 189.971 158.646C190.772 157.495 191.918 156.801 193.199 156.691C195.775 156.469 198.069 158.739 198.315 161.752C198.507 164.152 197.342 166.309 195.558 167.198C195.103 167.426 194.607 167.57 194.084 167.615Z" fill="#EFEFEF"/>
<path d="M184.549 165.63C181.903 166.81 178.565 165.509 177.106 162.729C175.648 159.949 176.614 156.727 179.26 155.547C181.904 154.367 185.243 155.668 186.701 158.449C188.159 161.228 187.194 164.45 184.549 165.63Z" fill="#EFEFEF"/>
<path d="M176.579 171.011V171.012C176.221 171.358 175.819 171.635 175.387 171.844C173.367 172.817 170.687 172.301 168.843 170.412C167.781 169.324 167.144 167.94 167.05 166.515C166.951 165.023 167.45 163.664 168.456 162.69C169.462 161.715 170.839 161.255 172.333 161.396C173.76 161.53 175.131 162.203 176.192 163.291C178.431 165.585 178.605 169.048 176.579 171.011Z" fill="#EFEFEF"/>
<path d="M164.413 175.002L164.413 175.001C165.684 172.406 168.946 171.55 171.687 173.093C174.425 174.639 175.623 178.007 174.357 180.601C173.895 181.548 173.168 182.264 172.297 182.715C170.78 183.504 168.827 183.492 167.084 182.511C164.344 180.965 163.146 177.597 164.413 175.002Z" fill="#EFEFEF"/>
<path d="M192.997 92.7069C193.362 89.6155 195.225 86.9601 197.982 85.604C200.739 84.2486 203.943 84.4114 206.554 86.0393L212.845 89.9627C213.889 90.6133 214.682 91.5685 215.139 92.7232C215.595 93.8785 215.672 95.126 215.361 96.3304C215.05 97.5347 214.38 98.5826 213.424 99.361C212.468 100.139 211.315 100.575 210.091 100.62L210.009 100.623C206.939 100.76 204.041 102.197 202.046 104.577C201.532 105.19 200.909 105.678 200.21 106.022C199.831 106.209 199.428 106.353 199.007 106.452C197.813 106.731 196.59 106.614 195.467 106.115C194.345 105.615 193.431 104.78 192.823 103.699C192.215 102.617 191.971 101.393 192.117 100.156L192.997 92.7069Z" fill="#EFEFEF"/>
<path d="M209.733 84.6759C208.45 84.7875 207.208 84.2986 206.233 83.3C205.306 82.3499 204.731 81.0417 204.616 79.616C204.502 78.1903 204.858 76.8024 205.62 75.7071C206.421 74.5561 207.567 73.8622 208.848 73.7524C211.424 73.5305 213.718 75.8001 213.964 78.8135C214.156 81.2133 212.991 83.3701 211.207 84.2596C210.752 84.487 210.256 84.6315 209.733 84.6759Z" fill="#EFEFEF"/>
<path d="M200.197 82.6915C197.552 83.8715 194.214 82.5702 192.755 79.7908C191.297 77.0104 192.263 73.7887 194.909 72.6082C197.553 71.4282 200.892 72.73 202.35 75.5104C203.808 78.2898 202.843 81.5115 200.197 82.6915Z" fill="#EFEFEF"/>
<path d="M192.228 88.0728V88.0734C191.87 88.4194 191.468 88.6962 191.035 88.9049C189.016 89.8785 186.336 89.3621 184.491 87.473C183.43 86.3853 182.793 85.0013 182.699 83.5759C182.6 82.0843 183.099 80.7257 184.105 79.7509C185.111 78.7762 186.488 78.3167 187.982 78.4568C189.409 78.5911 190.78 79.2642 191.841 80.3519C194.08 82.6461 194.254 86.1097 192.228 88.0728Z" fill="#EFEFEF"/>
<path d="M180.062 92.0634L180.062 92.062C181.333 89.4669 184.595 88.6114 187.336 90.1543C190.074 91.6999 191.272 95.0681 190.006 97.6625C189.544 98.6092 188.816 99.3249 187.946 99.7768C186.429 100.565 184.476 100.553 182.732 99.5723C179.993 98.0267 178.795 94.6585 180.062 92.0634Z" fill="#EFEFEF"/>
</g>
<g opacity="0.5">
<path d="M276.448 177.216C276.813 174.125 278.676 171.47 281.434 170.114C284.19 168.758 287.395 168.921 290.005 170.549L296.296 174.472C297.34 175.123 298.133 176.078 298.59 177.233C299.047 178.388 299.123 179.636 298.812 180.84C298.501 182.044 297.831 183.092 296.875 183.871C295.919 184.649 294.766 185.084 293.542 185.13L293.46 185.133C290.39 185.269 287.492 186.707 285.497 189.086C284.983 189.7 284.36 190.188 283.662 190.532C283.282 190.718 282.879 190.863 282.458 190.961C281.264 191.24 280.041 191.124 278.918 190.624C277.797 190.125 276.882 189.289 276.274 188.208C275.666 187.127 275.422 185.902 275.568 184.666L276.448 177.216Z" fill="#EFEFEF"/>
<path d="M293.184 169.185C291.902 169.297 290.659 168.808 289.685 167.809C288.757 166.859 288.183 165.551 288.067 164.126C287.953 162.7 288.309 161.312 289.071 160.217C289.872 159.066 291.019 158.372 292.3 158.262C294.875 158.04 297.169 160.31 297.415 163.323C297.607 165.723 296.442 167.88 294.658 168.769C294.203 168.996 293.707 169.141 293.184 169.185Z" fill="#EFEFEF"/>
<path d="M283.649 167.201C281.003 168.381 277.665 167.08 276.207 164.3C274.748 161.52 275.714 158.298 278.36 157.118C281.004 155.938 284.343 157.239 285.801 160.02C287.259 162.799 286.294 166.021 283.649 167.201Z" fill="#EFEFEF"/>
<path d="M275.679 172.582V172.583C275.321 172.929 274.919 173.206 274.487 173.415C272.467 174.388 269.787 173.872 267.943 171.983C266.881 170.895 266.244 169.511 266.15 168.086C266.051 166.594 266.55 165.235 267.556 164.261C268.562 163.286 269.939 162.826 271.433 162.966C272.86 163.101 274.231 163.774 275.292 164.862C277.531 167.156 277.705 170.619 275.679 172.582Z" fill="#EFEFEF"/>
<path d="M263.513 176.573L263.514 176.572C264.784 173.976 268.046 173.121 270.787 174.664C273.526 176.209 274.723 179.578 273.457 182.172C272.995 183.119 272.268 183.834 271.397 184.286C269.88 185.075 267.927 185.063 266.184 184.082C263.444 182.536 262.246 179.168 263.513 176.573Z" fill="#EFEFEF"/>
</g>
<g opacity="0.5">
<path d="M99.1832 103.473C99.5482 100.382 101.412 97.726 104.169 96.37C106.926 95.0146 110.13 95.1773 112.741 96.8053L119.032 100.729C120.076 101.379 120.868 102.334 121.325 103.489C121.782 104.645 121.859 105.892 121.548 107.096C121.237 108.301 120.566 109.349 119.611 110.127C118.655 110.905 117.502 111.341 116.277 111.386L116.195 111.389C113.125 111.526 110.227 112.963 108.232 115.343C107.718 115.956 107.095 116.444 106.397 116.788C106.017 116.975 105.614 117.119 105.193 117.218C104 117.497 102.776 117.38 101.653 116.881C100.532 116.381 99.6171 115.546 99.0093 114.465C98.4015 113.383 98.1576 112.159 98.3034 110.922L99.1832 103.473Z" fill="#EFEFEF"/>
<path d="M115.919 95.4415C114.637 95.5531 113.394 95.0642 112.42 94.0656C111.492 93.1155 110.918 91.8074 110.803 90.3816C110.688 88.9559 111.045 87.568 111.807 86.4728C112.607 85.3218 113.754 84.6278 115.035 84.518C117.61 84.2961 119.905 86.5657 120.15 89.5791C120.343 91.9789 119.177 94.1358 117.394 95.0253C116.938 95.2526 116.443 95.3971 115.919 95.4415Z" fill="#EFEFEF"/>
<path d="M106.384 93.4569C103.738 94.6369 100.4 93.3356 98.9419 90.5562C97.4838 87.7758 98.4493 84.5541 101.095 83.3736C103.74 82.1936 107.078 83.4954 108.537 86.2758C109.995 89.0552 109.029 92.2769 106.384 93.4569Z" fill="#EFEFEF"/>
<path d="M98.4145 98.8388V98.8393C98.0565 99.1854 97.6547 99.4622 97.222 99.6709C95.2021 100.644 92.5222 100.128 90.678 98.239C89.6167 97.1513 88.9798 95.7673 88.8854 94.3419C88.7863 92.8502 89.2855 91.4917 90.2916 90.5169C91.2977 89.5422 92.6741 89.0827 94.1681 89.2228C95.5956 89.3571 96.9662 90.0302 98.0275 91.1179C100.266 93.4121 100.44 96.8757 98.4145 98.8388Z" fill="#EFEFEF"/>
<path d="M86.2483 102.829L86.2489 102.828C87.5191 100.233 90.7813 99.377 93.5221 100.92C96.2609 102.466 97.4587 105.834 96.1921 108.428C95.7302 109.375 95.003 110.091 94.1326 110.542C92.6154 111.331 90.6628 111.319 88.919 110.338C86.1795 108.792 84.9817 105.424 86.2483 102.829Z" fill="#EFEFEF"/>
<path d="M114.831 20.5341C115.196 17.4428 117.059 14.7873 119.816 13.4313C122.573 12.0758 125.777 12.2386 128.388 13.8666L134.679 17.79C135.723 18.4406 136.516 19.3957 136.973 20.5505C137.429 21.7058 137.506 22.9533 137.195 24.1576C136.884 25.362 136.214 26.4099 135.258 27.1883C134.302 27.9667 133.149 28.402 131.925 28.4475L131.843 28.4504C128.773 28.5869 125.875 30.0246 123.88 32.4041C123.366 33.0174 122.743 33.5058 122.044 33.8494C121.665 34.0362 121.262 34.1803 120.841 34.2789C119.647 34.5578 118.424 34.4417 117.301 33.9422C116.179 33.4427 115.265 32.6072 114.657 31.526C114.049 30.4448 113.805 29.22 113.951 27.9836L114.831 20.5341Z" fill="#EFEFEF"/>
<path d="M131.567 12.5032C130.284 12.6147 129.042 12.1259 128.067 11.1272C127.14 10.1772 126.565 8.869 126.45 7.44329C126.336 6.01757 126.692 4.62964 127.454 3.53442C128.255 2.38341 129.401 1.68944 130.682 1.57968C133.258 1.35776 135.552 3.62738 135.798 6.64076C135.99 9.04054 134.825 11.1974 133.041 12.0869C132.586 12.3142 132.09 12.4588 131.567 12.5032Z" fill="#EFEFEF"/>
<path d="M122.031 10.5185C119.386 11.6986 116.048 10.3972 114.589 7.61786C113.131 4.83745 114.097 1.61577 116.743 0.435225C119.387 -0.744802 122.726 0.557044 124.184 3.33745C125.642 6.11682 124.677 9.3385 122.031 10.5185Z" fill="#EFEFEF"/>
<path d="M114.062 15.9V15.9006C113.704 16.2466 113.303 16.5234 112.87 16.7322C110.85 17.7058 108.17 17.1894 106.326 15.3003C105.265 14.2126 104.628 12.8286 104.533 11.4032C104.434 9.91152 104.933 8.55294 105.94 7.57822C106.946 6.6035 108.322 6.14393 109.816 6.28411C111.244 6.41837 112.614 7.09145 113.675 8.17914C115.914 10.4734 116.088 13.937 114.062 15.9Z" fill="#EFEFEF"/>
<path d="M101.896 19.8906L101.896 19.8893C103.167 17.2942 106.429 16.4386 109.17 17.9816C111.908 19.5272 113.106 22.8954 111.84 25.4898C111.378 26.4364 110.65 27.1522 109.78 27.604C108.263 28.3923 106.31 28.3804 104.566 27.3995C101.827 25.8539 100.629 22.4857 101.896 19.8906Z" fill="#EFEFEF"/>
</g>
<g opacity="0.5">
<path d="M13.44 27.5996C13.8051 24.5082 15.6686 21.8528 18.4258 20.4967C21.1824 19.1413 24.3867 19.3041 26.9976 20.932L33.2885 24.8554C34.3325 25.506 35.1251 26.4612 35.5819 27.6159C36.0388 28.7712 36.1157 30.0187 35.8046 31.2231C35.4935 32.4274 34.8232 33.4753 33.8676 34.2537C32.9114 35.0321 31.7584 35.4674 30.5342 35.5129L30.4521 35.5158C27.3821 35.6524 24.4843 37.0901 22.4893 39.4696C21.975 40.0828 21.3523 40.5712 20.6538 40.9149C20.2739 41.1016 19.871 41.2457 19.4503 41.3443C18.2565 41.6232 17.0329 41.5071 15.9103 41.0076C14.7888 40.5082 13.8739 39.6726 13.2661 38.5914C12.6583 37.5102 12.4144 36.2854 12.5602 35.049L13.44 27.5996Z" fill="#EFEFEF"/>
<path d="M30.1755 19.5682C28.8933 19.6798 27.6507 19.191 26.6763 18.1923C25.7484 17.2422 25.1742 15.9341 25.0591 14.5084C24.9444 13.0826 25.3011 11.6947 26.0631 10.5995C26.8636 9.44847 28.0102 8.75451 29.2912 8.64474C31.8666 8.42282 34.161 10.6924 34.4065 13.7058C34.5991 16.1056 33.4338 18.2625 31.6502 19.152C31.1947 19.3793 30.699 19.5238 30.1755 19.5682Z" fill="#EFEFEF"/>
<path d="M20.6408 17.5837C17.995 18.7637 14.6569 17.4624 13.1988 14.683C11.7407 11.9026 12.7061 8.68096 15.352 7.50041C17.9967 6.32038 21.3353 7.62223 22.7934 10.4026C24.2515 13.182 23.2861 16.4037 20.6408 17.5837Z" fill="#EFEFEF"/>
<path d="M12.6708 22.9656V22.9662C12.3129 23.3122 11.9111 23.589 11.4783 23.7978C9.45845 24.7713 6.77853 24.255 4.93433 22.3658C3.87304 21.2782 3.23615 19.8941 3.14178 18.4687C3.04265 16.9771 3.54183 15.6185 4.54792 14.6438C5.55401 13.669 6.93048 13.2095 8.42447 13.3497C9.85199 13.4839 11.2225 14.157 12.2838 15.2447C14.5227 17.539 14.6966 21.0025 12.6708 22.9656Z" fill="#EFEFEF"/>
<path d="M0.505135 26.9557L0.50575 26.9544C1.77598 24.3593 5.03818 23.5037 7.77889 25.0466C10.5178 26.5922 11.7155 29.9604 10.449 32.5549C9.98706 33.5015 9.25981 34.2172 8.38944 34.6691C6.87228 35.4574 4.91963 35.4455 3.17582 34.4646C0.436341 32.919 -0.761415 29.5508 0.505135 26.9557Z" fill="#EFEFEF"/>
</g>
</svg>
