<svg width="299" height="192" viewBox="0 0 299 192" fill="none" xmlns="http://www.w3.org/2000/svg">
<g opacity="0.5">
<path d="M121.652 175.646C121.287 172.555 119.424 169.899 116.666 168.543C113.91 167.188 110.706 167.35 108.095 168.978L101.804 172.902C100.76 173.552 99.9672 174.508 99.5104 175.662C99.0535 176.818 98.9766 178.065 99.2877 179.269C99.5987 180.474 100.269 181.522 101.225 182.3C102.181 183.078 103.334 183.514 104.558 183.559L104.64 183.562C107.71 183.699 110.608 185.136 112.603 187.516C113.117 188.129 113.74 188.618 114.438 188.961C114.818 189.148 115.221 189.292 115.642 189.391C116.836 189.67 118.059 189.554 119.182 189.054C120.303 188.555 121.218 187.719 121.826 186.638C122.434 185.557 122.678 184.332 122.532 183.095L121.652 175.646Z" fill="#EFEFEF"/>
<path d="M104.916 167.615C106.198 167.726 107.441 167.237 108.416 166.239C109.343 165.289 109.918 163.98 110.033 162.555C110.147 161.129 109.791 159.741 109.029 158.646C108.228 157.495 107.082 156.801 105.801 156.691C103.225 156.469 100.931 158.739 100.685 161.752C100.493 164.152 101.658 166.309 103.442 167.198C103.897 167.426 104.393 167.57 104.916 167.615Z" fill="#EFEFEF"/>
<path d="M114.451 165.63C117.097 166.81 120.435 165.509 121.894 162.729C123.352 159.949 122.386 156.727 119.74 155.547C117.096 154.367 113.757 155.668 112.299 158.449C110.841 161.228 111.806 164.45 114.451 165.63Z" fill="#EFEFEF"/>
<path d="M122.421 171.011V171.012C122.779 171.358 123.181 171.635 123.613 171.844C125.633 172.817 128.313 172.301 130.157 170.412C131.219 169.324 131.856 167.94 131.95 166.515C132.049 165.023 131.55 163.664 130.544 162.69C129.538 161.715 128.161 161.255 126.667 161.396C125.24 161.53 123.869 162.203 122.808 163.291C120.569 165.585 120.395 169.048 122.421 171.011Z" fill="#EFEFEF"/>
<path d="M134.587 175.002L134.587 175.001C133.316 172.406 130.054 171.55 127.313 173.093C124.575 174.639 123.377 178.007 124.643 180.601C125.105 181.548 125.832 182.264 126.703 182.715C128.22 183.504 130.173 183.492 131.916 182.511C134.656 180.965 135.854 177.597 134.587 175.002Z" fill="#EFEFEF"/>
<path d="M106.003 92.7069C105.638 89.6155 103.775 86.9601 101.018 85.604C98.2609 84.2486 95.0566 84.4114 92.4458 86.0393L86.1549 89.9627C85.1109 90.6133 84.3183 91.5685 83.8614 92.7232C83.4046 93.8785 83.3277 95.126 83.6388 96.3304C83.9498 97.5347 84.6202 98.5826 85.5758 99.361C86.532 100.139 87.685 100.575 88.9092 100.62L88.9913 100.623C92.0613 100.76 94.9591 102.197 96.9541 104.577C97.4683 105.19 98.091 105.678 98.7895 106.022C99.1695 106.209 99.5724 106.353 99.9931 106.452C101.187 106.731 102.41 106.614 103.533 106.115C104.655 105.615 105.569 104.78 106.177 103.699C106.785 102.617 107.029 101.393 106.883 100.156L106.003 92.7069Z" fill="#EFEFEF"/>
<path d="M89.2674 84.6759C90.5496 84.7875 91.7922 84.2986 92.7666 83.3C93.6945 82.3499 94.2686 81.0417 94.3838 79.616C94.4984 78.1903 94.1418 76.8024 93.3797 75.7071C92.5793 74.5561 91.4326 73.8622 90.1516 73.7524C87.5763 73.5305 85.2819 75.8001 85.0364 78.8135C84.8438 81.2133 86.0091 83.3701 87.7927 84.2596C88.2482 84.487 88.7438 84.6315 89.2674 84.6759Z" fill="#EFEFEF"/>
<path d="M98.8026 82.6915C101.448 83.8715 104.786 82.5702 106.245 79.7908C107.703 77.0104 106.737 73.7887 104.091 72.6082C101.447 71.4282 98.1081 72.73 96.65 75.5104C95.1918 78.2898 96.1573 81.5115 98.8026 82.6915Z" fill="#EFEFEF"/>
<path d="M106.772 88.0728V88.0734C107.13 88.4194 107.532 88.6962 107.965 88.9049C109.984 89.8785 112.664 89.3621 114.509 87.473C115.57 86.3853 116.207 85.0013 116.301 83.5759C116.4 82.0843 115.901 80.7257 114.895 79.7509C113.889 78.7762 112.512 78.3167 111.018 78.4568C109.591 78.5911 108.22 79.2642 107.159 80.3519C104.92 82.6461 104.746 86.1097 106.772 88.0728Z" fill="#EFEFEF"/>
<path d="M118.938 92.0634L118.938 92.062C117.667 89.4669 114.405 88.6114 111.664 90.1543C108.926 91.6999 107.728 95.0681 108.994 97.6625C109.456 98.6092 110.184 99.3249 111.054 99.7768C112.571 100.565 114.524 100.553 116.268 99.5723C119.007 98.0267 120.205 94.6585 118.938 92.0634Z" fill="#EFEFEF"/>
</g>
<g opacity="0.5">
<path d="M22.5521 177.216C22.1871 174.125 20.3235 171.47 17.5664 170.114C14.8097 168.758 11.6055 168.921 8.99463 170.549L2.70371 174.472C1.65972 175.123 0.867119 176.078 0.410266 177.233C-0.0465868 178.388 -0.123494 179.636 0.187579 180.84C0.498652 182.044 1.16901 183.092 2.12461 183.871C3.08079 184.649 4.23383 185.084 5.45803 185.13L5.54011 185.133C8.61009 185.269 11.5079 186.707 13.5029 189.086C14.0171 189.7 14.6399 190.188 15.3383 190.532C15.7183 190.718 16.1212 190.863 16.5419 190.961C17.7357 191.24 18.9593 191.124 20.0819 190.624C21.2034 190.125 22.1182 189.289 22.726 188.208C23.3338 187.127 23.5778 185.902 23.432 184.666L22.5521 177.216Z" fill="#EFEFEF"/>
<path d="M5.81622 169.185C7.09838 169.297 8.34098 168.808 9.3154 167.809C10.2433 166.859 10.8175 165.551 10.9326 164.126C11.0473 162.7 10.6906 161.312 9.92856 160.217C9.12808 159.066 7.98147 158.372 6.70047 158.262C4.12509 158.04 1.8307 160.31 1.58521 163.323C1.39265 165.723 2.55788 167.88 4.3415 168.769C4.79701 168.996 5.29265 169.141 5.81622 169.185Z" fill="#EFEFEF"/>
<path d="M15.3514 167.201C17.9972 168.381 21.3353 167.08 22.7934 164.3C24.2515 161.52 23.2861 158.298 20.6402 157.118C17.9955 155.938 14.6569 157.239 13.1988 160.02C11.7407 162.799 12.7061 166.021 15.3514 167.201Z" fill="#EFEFEF"/>
<path d="M23.3209 172.582V172.583C23.6788 172.929 24.0806 173.206 24.5134 173.415C26.5332 174.388 29.2132 173.872 31.0574 171.983C32.1187 170.895 32.7555 169.511 32.8499 168.086C32.949 166.594 32.4499 165.235 31.4438 164.261C30.4377 163.286 29.0612 162.826 27.5672 162.966C26.1397 163.101 24.7692 163.774 23.7079 164.862C21.469 167.156 21.2951 170.619 23.3209 172.582Z" fill="#EFEFEF"/>
<path d="M35.4871 176.573L35.4864 176.572C34.2162 173.976 30.954 173.121 28.2133 174.664C25.4744 176.209 24.2767 179.578 25.5432 182.172C26.0051 183.119 26.7324 183.834 27.6027 184.286C29.1199 185.075 31.0726 185.063 32.8164 184.082C35.5558 182.536 36.7536 179.168 35.4871 176.573Z" fill="#EFEFEF"/>
</g>
<g opacity="0.5">
<path d="M199.817 103.473C199.452 100.382 197.588 97.726 194.831 96.37C192.074 95.0146 188.87 95.1773 186.259 96.8053L179.968 100.729C178.924 101.379 178.132 102.334 177.675 103.489C177.218 104.645 177.141 105.892 177.452 107.096C177.763 108.301 178.434 109.349 179.389 110.127C180.345 110.905 181.498 111.341 182.723 111.386L182.805 111.389C185.875 111.526 188.773 112.963 190.768 115.343C191.282 115.956 191.905 116.444 192.603 116.788C192.983 116.975 193.386 117.119 193.807 117.218C195 117.497 196.224 117.38 197.347 116.881C198.468 116.381 199.383 115.546 199.991 114.465C200.598 113.383 200.842 112.159 200.697 110.922L199.817 103.473Z" fill="#EFEFEF"/>
<path d="M183.081 95.4415C184.363 95.5531 185.606 95.0642 186.58 94.0656C187.508 93.1155 188.082 91.8074 188.197 90.3816C188.312 88.9559 187.955 87.568 187.193 86.4728C186.393 85.3218 185.246 84.6278 183.965 84.518C181.39 84.2961 179.095 86.5657 178.85 89.5791C178.657 91.9789 179.823 94.1358 181.606 95.0253C182.062 95.2526 182.557 95.3971 183.081 95.4415Z" fill="#EFEFEF"/>
<path d="M192.616 93.4569C195.262 94.6369 198.6 93.3356 200.058 90.5562C201.516 87.7758 200.551 84.5541 197.905 83.3736C195.26 82.1936 191.922 83.4954 190.463 86.2758C189.005 89.0552 189.971 92.2769 192.616 93.4569Z" fill="#EFEFEF"/>
<path d="M200.586 98.8388V98.8393C200.943 99.1854 201.345 99.4622 201.778 99.6709C203.798 100.644 206.478 100.128 208.322 98.239C209.383 97.1513 210.02 95.7673 210.115 94.3419C210.214 92.8502 209.715 91.4917 208.708 90.5169C207.702 89.5422 206.326 89.0827 204.832 89.2228C203.404 89.3571 202.034 90.0302 200.973 91.1179C198.734 93.4121 198.56 96.8757 200.586 98.8388Z" fill="#EFEFEF"/>
<path d="M212.752 102.829L212.751 102.828C211.481 100.233 208.219 99.377 205.478 100.92C202.739 102.466 201.541 105.834 202.808 108.428C203.27 109.375 203.997 110.091 204.867 110.542C206.385 111.331 208.337 111.319 210.081 110.338C212.82 108.792 214.018 105.424 212.752 102.829Z" fill="#EFEFEF"/>
<path d="M184.169 20.5341C183.804 17.4428 181.941 14.7873 179.184 13.4313C176.427 12.0758 173.223 12.2386 170.612 13.8666L164.321 17.79C163.277 18.4406 162.484 19.3957 162.027 20.5505C161.571 21.7058 161.494 22.9533 161.805 24.1576C162.116 25.362 162.786 26.4099 163.742 27.1883C164.698 27.9667 165.851 28.402 167.075 28.4475L167.157 28.4504C170.227 28.5869 173.125 30.0246 175.12 32.4041C175.634 33.0174 176.257 33.5058 176.956 33.8494C177.335 34.0362 177.738 34.1803 178.159 34.2789C179.353 34.5578 180.576 34.4417 181.699 33.9422C182.821 33.4427 183.735 32.6072 184.343 31.526C184.951 30.4448 185.195 29.22 185.049 27.9836L184.169 20.5341Z" fill="#EFEFEF"/>
<path d="M167.433 12.5032C168.716 12.6147 169.958 12.1259 170.933 11.1272C171.86 10.1772 172.435 8.869 172.55 7.44329C172.664 6.01757 172.308 4.62964 171.546 3.53442C170.745 2.38341 169.599 1.68944 168.318 1.57968C165.742 1.35776 163.448 3.62738 163.202 6.64076C163.01 9.04054 164.175 11.1974 165.959 12.0869C166.414 12.3142 166.91 12.4588 167.433 12.5032Z" fill="#EFEFEF"/>
<path d="M176.969 10.5185C179.614 11.6986 182.952 10.3972 184.411 7.61786C185.869 4.83745 184.903 1.61577 182.257 0.435225C179.613 -0.744802 176.274 0.557044 174.816 3.33745C173.358 6.11682 174.323 9.3385 176.969 10.5185Z" fill="#EFEFEF"/>
<path d="M184.938 15.9V15.9006C185.296 16.2466 185.697 16.5234 186.13 16.7322C188.15 17.7058 190.83 17.1894 192.674 15.3003C193.735 14.2126 194.372 12.8286 194.467 11.4032C194.566 9.91152 194.067 8.55294 193.06 7.57822C192.054 6.6035 190.678 6.14393 189.184 6.28411C187.756 6.41837 186.386 7.09145 185.325 8.17914C183.086 10.4734 182.912 13.937 184.938 15.9Z" fill="#EFEFEF"/>
<path d="M197.104 19.8906L197.104 19.8893C195.833 17.2942 192.571 16.4386 189.83 17.9816C187.092 19.5272 185.894 22.8954 187.16 25.4898C187.622 26.4364 188.35 27.1522 189.22 27.604C190.737 28.3923 192.69 28.3804 194.434 27.3995C197.173 25.8539 198.371 22.4857 197.104 19.8906Z" fill="#EFEFEF"/>
</g>
<g opacity="0.5">
<path d="M285.56 27.5996C285.195 24.5082 283.331 21.8528 280.574 20.4967C277.818 19.1413 274.613 19.3041 272.002 20.932L265.712 24.8554C264.668 25.506 263.875 26.4612 263.418 27.6159C262.961 28.7712 262.884 30.0187 263.195 31.2231C263.506 32.4274 264.177 33.4753 265.132 34.2537C266.089 35.0321 267.242 35.4674 268.466 35.5129L268.548 35.5158C271.618 35.6524 274.516 37.0901 276.511 39.4696C277.025 40.0828 277.648 40.5712 278.346 40.9149C278.726 41.1016 279.129 41.2457 279.55 41.3443C280.743 41.6232 281.967 41.5071 283.09 41.0076C284.211 40.5082 285.126 39.6726 285.734 38.5914C286.342 37.5102 286.586 36.2854 286.44 35.049L285.56 27.5996Z" fill="#EFEFEF"/>
<path d="M268.825 19.5682C270.107 19.6798 271.349 19.191 272.324 18.1923C273.252 17.2422 273.826 15.9341 273.941 14.5084C274.056 13.0826 273.699 11.6947 272.937 10.5995C272.136 9.44847 270.99 8.75451 269.709 8.64474C267.133 8.42282 264.839 10.6924 264.594 13.7058C264.401 16.1056 265.566 18.2625 267.35 19.152C267.805 19.3793 268.301 19.5238 268.825 19.5682Z" fill="#EFEFEF"/>
<path d="M278.359 17.5837C281.005 18.7637 284.343 17.4624 285.801 14.683C287.259 11.9026 286.294 8.68096 283.648 7.50041C281.003 6.32038 277.665 7.62223 276.207 10.4026C274.748 13.182 275.714 16.4037 278.359 17.5837Z" fill="#EFEFEF"/>
<path d="M286.329 22.9656V22.9662C286.687 23.3122 287.089 23.589 287.522 23.7978C289.542 24.7713 292.221 24.255 294.066 22.3658C295.127 21.2782 295.764 19.8941 295.858 18.4687C295.957 16.9771 295.458 15.6185 294.452 14.6438C293.446 13.669 292.07 13.2095 290.576 13.3497C289.148 13.4839 287.777 14.157 286.716 15.2447C284.477 17.539 284.303 21.0025 286.329 22.9656Z" fill="#EFEFEF"/>
<path d="M298.495 26.9557L298.494 26.9544C297.224 24.3593 293.962 23.5037 291.221 25.0466C288.482 26.5922 287.284 29.9604 288.551 32.5549C289.013 33.5015 289.74 34.2172 290.611 34.6691C292.128 35.4574 294.08 35.4455 295.824 34.4646C298.564 32.919 299.761 29.5508 298.495 26.9557Z" fill="#EFEFEF"/>
</g>
</svg>
