<svg width="286" height="274" viewBox="0 0 286 274" fill="none" xmlns="http://www.w3.org/2000/svg">
<path d="M106.795 110.393C109.695 134.957 124.503 156.058 146.412 166.833C168.316 177.603 193.777 176.309 214.523 163.374L264.51 132.199C272.806 127.029 279.104 119.439 282.734 110.264C286.364 101.083 286.975 91.1708 284.504 81.6012C282.032 72.0316 276.705 63.7046 269.112 57.5196C261.514 51.3346 252.352 47.8758 242.625 47.5142L241.973 47.491C217.578 46.4061 194.553 34.9819 178.7 16.0745C174.614 11.2017 169.666 7.32097 164.116 4.5901C161.097 3.10645 157.895 1.96126 154.552 1.1777C145.067 -1.0385 135.344 -0.11586 126.423 3.85292C117.512 7.8217 110.243 14.4611 105.413 23.0524C100.584 31.6437 98.6454 41.3755 99.8038 51.2001L106.795 110.393Z" fill="url(#paint0_linear_755_4327)" fill-opacity="0.7"/>
<path d="M239.776 174.21C229.588 173.324 219.714 177.208 211.972 185.144C204.599 192.693 200.036 203.087 199.121 214.416C198.21 225.745 201.044 236.773 207.099 245.476C213.46 254.622 222.571 260.136 232.75 261.008C253.214 262.772 271.445 244.737 273.396 220.793C274.926 201.724 265.667 184.586 251.494 177.518C247.875 175.712 243.936 174.563 239.776 174.21Z" fill="url(#paint1_linear_755_4327)" fill-opacity="0.7"/>
<path d="M164.012 189.98C142.988 180.604 116.464 190.944 104.878 213.029C93.2913 235.122 100.963 260.721 121.987 270.102C143.001 279.478 169.53 269.134 181.116 247.041C192.703 224.956 185.031 199.357 164.012 189.98Z" fill="url(#paint2_linear_755_4327)" fill-opacity="0.7"/>
<path d="M100.687 147.216V147.211C97.8429 144.462 94.6499 142.262 91.2116 140.603C75.1616 132.868 53.8669 136.97 39.2129 151.981C30.7799 160.624 25.7192 171.621 24.9693 182.948C24.1816 194.8 28.1481 205.596 36.1425 213.341C44.1369 221.086 55.0743 224.738 66.9455 223.624C78.2886 222.557 89.1788 217.209 97.6118 208.566C115.402 190.336 116.784 162.814 100.687 147.216Z" fill="url(#paint3_linear_755_4327)" fill-opacity="0.7"/>
<path d="M4.0136 115.51L4.01848 115.52C14.1118 136.141 40.0331 142.939 61.8108 130.679C83.5738 118.398 93.0912 91.6341 83.0272 71.0187C79.3569 63.4969 73.5782 57.8097 66.6622 54.2192C54.6069 47.9554 39.0912 48.0498 25.2349 55.8441C3.46696 68.1253 -6.0504 94.8892 4.0136 115.51Z" fill="url(#paint4_linear_755_4327)" fill-opacity="0.7"/>
<defs>
<linearGradient id="paint0_linear_755_4327" x1="192.736" y1="174.082" x2="192.736" y2="1.52588e-05" gradientUnits="userSpaceOnUse">
<stop stop-color="white"/>
<stop offset="1" stop-color="white" stop-opacity="0"/>
</linearGradient>
<linearGradient id="paint1_linear_755_4327" x1="236.257" y1="261.127" x2="236.257" y2="174.086" gradientUnits="userSpaceOnUse">
<stop stop-color="white"/>
<stop offset="1" stop-color="white" stop-opacity="0"/>
</linearGradient>
<linearGradient id="paint2_linear_755_4327" x1="142.997" y1="273.561" x2="142.997" y2="186.52" gradientUnits="userSpaceOnUse">
<stop stop-color="white"/>
<stop offset="1" stop-color="white" stop-opacity="0"/>
</linearGradient>
<linearGradient id="paint3_linear_755_4327" x1="68.3915" y1="223.82" x2="68.3915" y2="136.779" gradientUnits="userSpaceOnUse">
<stop stop-color="white"/>
<stop offset="1" stop-color="white" stop-opacity="0"/>
</linearGradient>
<linearGradient id="paint4_linear_755_4327" x1="43.5205" y1="136.781" x2="43.5205" y2="49.7401" gradientUnits="userSpaceOnUse">
<stop stop-color="white"/>
<stop offset="1" stop-color="white" stop-opacity="0"/>
</linearGradient>
</defs>
</svg>
