<svg width="167" height="180" viewBox="0 0 167 180" fill="none" xmlns="http://www.w3.org/2000/svg">
<path d="M96.6235 107.101C94.7196 90.9774 85 77.1275 70.6195 70.0549C56.242 62.9854 39.5297 63.8344 25.9126 72.3252L-6.89845 92.7882C-12.3435 96.1814 -16.4774 101.163 -18.8602 107.186C-21.243 113.212 -21.6441 119.718 -20.0217 125.999C-18.3992 132.281 -14.9029 137.747 -9.91882 141.806C-4.93176 145.866 1.08205 148.136 7.46704 148.374L7.8951 148.389C23.907 149.101 39.0208 156.6 49.426 169.01C52.1081 172.209 55.356 174.756 58.999 176.548C60.9806 177.522 63.082 178.274 65.2762 178.788C71.5026 180.243 77.8846 179.637 83.7397 177.032C89.5889 174.427 94.3604 170.069 97.5305 164.43C100.701 158.791 101.973 152.403 101.212 145.954L96.6235 107.101Z" fill="url(#paint0_linear_193_3498)" fill-opacity="0.2"/>
<path d="M9.33651 65.2122C16.0238 65.7941 22.5047 63.2445 27.5869 58.0358C32.4264 53.0806 35.4211 46.2578 36.0219 38.8218C36.6196 31.3858 34.7597 24.1469 30.7849 18.4346C26.6099 12.4313 20.6296 8.81188 13.9484 8.2394C0.516229 7.08193 -11.4505 18.9195 -12.7309 34.6361C-13.7352 47.1525 -7.65777 58.4019 1.64493 63.0411C4.02067 64.2268 6.60577 64.9807 9.33651 65.2122Z" fill="url(#paint1_linear_193_3498)" fill-opacity="0.2"/>
<path d="M59.0673 54.8613C72.867 61.0159 90.277 54.2286 97.882 39.7325C105.487 25.231 100.452 8.42791 86.6519 2.27061C72.8581 -3.88397 55.4451 2.90597 47.8401 17.4075C40.235 31.9037 45.2706 48.7067 59.0673 54.8613Z" fill="url(#paint2_linear_193_3498)" fill-opacity="0.2"/>
<path d="M100.632 82.9311V82.9342C102.499 84.7388 104.595 86.1825 106.852 87.2714C117.387 92.3491 131.364 89.656 140.983 79.8031C146.518 74.1301 149.84 66.9116 150.332 59.4772C150.849 51.6973 148.245 44.6114 142.998 39.5276C137.751 34.4438 130.571 32.0469 122.779 32.778C115.334 33.4783 108.186 36.9888 102.651 42.6618C90.9732 54.6278 90.0661 72.6926 100.632 82.9311Z" fill="url(#paint3_linear_193_3498)" fill-opacity="0.2"/>
<path d="M164.087 103.742L164.084 103.735C157.459 90.2004 140.445 85.7381 126.15 93.7855C111.865 101.847 105.618 119.414 112.224 132.946C114.633 137.883 118.426 141.616 122.966 143.973C130.879 148.084 141.063 148.022 150.158 142.906C164.446 134.845 170.693 117.277 164.087 103.742Z" fill="url(#paint4_linear_193_3498)" fill-opacity="0.2"/>
<defs>
<linearGradient id="paint0_linear_193_3498" x1="40.2133" y1="65.2964" x2="40.2133" y2="179.561" gradientUnits="userSpaceOnUse">
<stop stop-color="#67C7DC"/>
<stop offset="1" stop-color="#67C7DC" stop-opacity="0"/>
</linearGradient>
<linearGradient id="paint1_linear_193_3498" x1="11.6462" y1="8.16125" x2="11.6462" y2="65.2937" gradientUnits="userSpaceOnUse">
<stop stop-color="#67C7DC"/>
<stop offset="1" stop-color="#67C7DC" stop-opacity="0"/>
</linearGradient>
<linearGradient id="paint2_linear_193_3498" x1="72.861" y1="0" x2="72.861" y2="57.1324" gradientUnits="userSpaceOnUse">
<stop stop-color="#67C7DC"/>
<stop offset="1" stop-color="#67C7DC" stop-opacity="0"/>
</linearGradient>
<linearGradient id="paint3_linear_193_3498" x1="121.83" y1="32.6492" x2="121.83" y2="89.7816" gradientUnits="userSpaceOnUse">
<stop stop-color="#67C7DC"/>
<stop offset="1" stop-color="#67C7DC" stop-opacity="0"/>
</linearGradient>
<linearGradient id="paint4_linear_193_3498" x1="138.156" y1="89.7802" x2="138.156" y2="146.913" gradientUnits="userSpaceOnUse">
<stop stop-color="#67C7DC"/>
<stop offset="1" stop-color="#67C7DC" stop-opacity="0"/>
</linearGradient>
</defs>
</svg>
