<svg width="88" height="83" viewBox="0 0 88 83" fill="none" xmlns="http://www.w3.org/2000/svg">
<path d="M54.9067 49.1713C54.0327 41.7689 49.5702 35.4102 42.968 32.1631C36.3671 28.9174 28.6943 29.3072 22.4425 33.2054L7.3785 42.6002C4.87861 44.1581 2.98067 46.4454 1.8867 49.2104C0.792742 51.9769 0.608583 54.9641 1.35347 57.848C2.09835 60.7318 3.70356 63.2412 5.99181 65.1051C8.28143 66.9689 11.0424 68.0113 13.9739 68.1202L14.1704 68.1272C21.5217 68.4542 28.4606 71.8969 33.2378 77.5947C34.4692 79.0632 35.9603 80.2326 37.6329 81.0556C38.5427 81.5027 39.5074 81.8478 40.5148 82.0839C43.3734 82.7518 46.3035 82.4738 48.9916 81.2778C51.6771 80.0817 53.8677 78.0809 55.3232 75.4919C56.7786 72.9029 57.3627 69.9701 57.0136 67.0095L54.9067 49.1713Z" fill="url(#paint0_linear_1117_6887)" fill-opacity="0.7"/>
<path d="M14.8325 29.9398C17.9027 30.2069 20.8782 29.0364 23.2115 26.645C25.4333 24.37 26.8083 21.2375 27.0841 17.8236C27.3585 14.4096 26.5046 11.0861 24.6797 8.46356C22.7629 5.7074 20.0173 4.04566 16.9499 3.78283C10.783 3.25142 5.28891 8.68618 4.70106 15.9019C4.23997 21.6483 7.03019 26.8131 11.3012 28.943C12.3919 29.4873 13.5788 29.8335 14.8325 29.9398Z" fill="url(#paint1_linear_1117_6887)" fill-opacity="0.7"/>
<path d="M37.6641 25.1875C43.9997 28.0132 51.9928 24.8971 55.4844 18.2417C58.976 11.5839 56.6641 3.86936 50.3285 1.04246C43.9956 -1.78318 36.0011 1.33417 32.5095 7.99202C29.0179 14.6474 31.3298 22.3619 37.6641 25.1875Z" fill="url(#paint2_linear_1117_6887)" fill-opacity="0.7"/>
<path d="M56.747 38.0747V38.0761C57.6041 38.9046 58.5663 39.5675 59.6024 40.0674C64.4392 42.3986 70.8564 41.1622 75.2725 36.6386C77.8138 34.034 79.3389 30.7199 79.5649 27.3067C79.8022 23.7348 78.6069 20.4816 76.1978 18.1476C73.7886 15.8136 70.4926 14.7131 66.9151 15.0488C63.4969 15.3703 60.215 16.982 57.6737 19.5866C52.3125 25.0803 51.8961 33.3741 56.747 38.0747Z" fill="url(#paint3_linear_1117_6887)" fill-opacity="0.7"/>
<path d="M85.88 47.6295L85.8786 47.6263C82.8369 41.4122 75.0254 39.3635 68.4626 43.0581C61.9042 46.7591 59.0361 54.8245 62.069 61.0371C63.175 63.3038 64.9165 65.0176 67.0006 66.0997C70.6335 67.9873 75.3093 67.9589 79.4849 65.61C86.0448 61.909 88.9129 53.8436 85.88 47.6295Z" fill="url(#paint4_linear_1117_6887)" fill-opacity="0.7"/>
<defs>
<linearGradient id="paint0_linear_1117_6887" x1="29.0081" y1="29.9784" x2="29.0081" y2="82.4388" gradientUnits="userSpaceOnUse">
<stop stop-color="white"/>
<stop offset="1" stop-color="white" stop-opacity="0"/>
</linearGradient>
<linearGradient id="paint1_linear_1117_6887" x1="15.8929" y1="3.74695" x2="15.8929" y2="29.9772" gradientUnits="userSpaceOnUse">
<stop stop-color="white"/>
<stop offset="1" stop-color="white" stop-opacity="0"/>
</linearGradient>
<linearGradient id="paint2_linear_1117_6887" x1="43.9969" y1="0" x2="43.9969" y2="26.2302" gradientUnits="userSpaceOnUse">
<stop stop-color="white"/>
<stop offset="1" stop-color="white" stop-opacity="0"/>
</linearGradient>
<linearGradient id="paint3_linear_1117_6887" x1="66.4794" y1="14.9896" x2="66.4794" y2="41.2198" gradientUnits="userSpaceOnUse">
<stop stop-color="white"/>
<stop offset="1" stop-color="white" stop-opacity="0"/>
</linearGradient>
<linearGradient id="paint4_linear_1117_6887" x1="73.9745" y1="41.2192" x2="73.9745" y2="67.4495" gradientUnits="userSpaceOnUse">
<stop stop-color="white"/>
<stop offset="1" stop-color="white" stop-opacity="0"/>
</linearGradient>
</defs>
</svg>
