<svg width="271" height="274" viewBox="0 0 271 274" fill="none" xmlns="http://www.w3.org/2000/svg">
<path d="M106.795 163.168C109.695 138.604 124.503 117.504 146.412 106.729C168.316 95.9582 193.777 97.2518 214.523 110.187L264.51 141.363C272.806 146.532 279.104 154.122 282.734 163.298C286.364 172.478 286.975 182.391 284.504 191.96C282.032 201.53 276.705 209.857 269.112 216.042C261.514 222.227 252.352 225.685 242.625 226.047L241.973 226.07C217.578 227.155 194.553 238.579 178.7 257.487C174.614 262.36 169.666 266.24 164.116 268.971C161.097 270.455 157.895 271.6 154.552 272.384C145.067 274.6 135.344 273.677 126.423 269.708C117.512 265.74 110.243 259.1 105.413 250.509C100.584 241.918 98.6454 232.186 99.8038 222.361L106.795 163.168Z" fill="url(#paint0_linear_193_3516)" fill-opacity="0.7"/>
<path d="M239.777 99.3506C229.589 100.237 219.715 96.3528 211.972 88.4175C204.599 80.8681 200.037 70.4736 199.122 59.1448C198.211 47.8161 201.045 36.7876 207.1 28.085C213.461 18.9391 222.572 13.4248 232.75 12.5527C253.214 10.7892 271.446 28.8237 273.396 52.768C274.926 71.8366 265.667 88.9751 251.495 96.043C247.875 97.8493 243.937 98.9979 239.777 99.3506Z" fill="url(#paint1_linear_193_3516)" fill-opacity="0.7"/>
<path d="M164.012 83.5811C142.988 92.9576 116.464 82.6173 104.877 60.5325C93.2911 38.4393 100.963 12.8399 121.987 3.45926C143.001 -5.91722 169.53 4.42724 181.116 26.5204C192.702 48.6052 185.031 74.2046 164.012 83.5811Z" fill="url(#paint2_linear_193_3516)" fill-opacity="0.7"/>
<path d="M100.688 126.345V126.35C97.8438 129.099 94.6508 131.299 91.2125 132.958C75.1625 140.694 53.8678 136.591 39.2138 121.58C30.7808 112.937 25.7201 101.94 24.9702 90.6134C24.1825 78.7607 28.1491 67.9654 36.1434 60.2203C44.1378 52.4752 55.0752 48.8235 66.9464 49.9373C78.2895 51.0041 89.1797 56.3524 97.6127 64.9952C115.403 83.2254 116.785 110.747 100.688 126.345Z" fill="url(#paint3_linear_193_3516)" fill-opacity="0.7"/>
<path d="M4.01372 158.051L4.0186 158.041C14.1119 137.42 40.0333 130.622 61.8109 142.882C83.574 155.163 93.0913 181.927 83.0273 202.543C79.357 210.064 73.5783 215.752 66.6623 219.342C54.607 225.606 39.0913 225.512 25.235 217.717C3.46709 205.436 -6.05028 178.672 4.01372 158.051Z" fill="url(#paint4_linear_193_3516)" fill-opacity="0.7"/>
<defs>
<linearGradient id="paint0_linear_193_3516" x1="192.736" y1="99.479" x2="192.736" y2="273.561" gradientUnits="userSpaceOnUse">
<stop stop-color="white"/>
<stop offset="1" stop-color="white" stop-opacity="0"/>
</linearGradient>
<linearGradient id="paint1_linear_193_3516" x1="236.258" y1="12.4336" x2="236.258" y2="99.4747" gradientUnits="userSpaceOnUse">
<stop stop-color="white"/>
<stop offset="1" stop-color="white" stop-opacity="0"/>
</linearGradient>
<linearGradient id="paint2_linear_193_3516" x1="142.997" y1="0" x2="142.997" y2="87.0411" gradientUnits="userSpaceOnUse">
<stop stop-color="white"/>
<stop offset="1" stop-color="white" stop-opacity="0"/>
</linearGradient>
<linearGradient id="paint3_linear_193_3516" x1="68.3925" y1="49.741" x2="68.3925" y2="136.782" gradientUnits="userSpaceOnUse">
<stop stop-color="white"/>
<stop offset="1" stop-color="white" stop-opacity="0"/>
</linearGradient>
<linearGradient id="paint4_linear_193_3516" x1="43.5206" y1="136.78" x2="43.5206" y2="223.821" gradientUnits="userSpaceOnUse">
<stop stop-color="white"/>
<stop offset="1" stop-color="white" stop-opacity="0"/>
</linearGradient>
</defs>
</svg>
