<?xml version="1.0" encoding="UTF-8"?>

<svg version="1.1" xmlns="http://www.w3.org/2000/svg" xmlns:xlink="http://www.w3.org/1999/xlink">

    <symbol viewBox="0 0 16 8" id="dropdown-arrow" xmlns="http://www.w3.org/2000/svg">
        <path fill-rule="evenodd" clip-rule="evenodd" d="M0.240731 0.349227C0.600153 -0.0700991 1.23145 -0.118661 1.65078 0.240762L7.99999 5.68294L14.3492 0.240762C14.7685 -0.118661 15.3998 -0.0700991 15.7592 0.349227C16.1187 0.768552 16.0701 1.39985 15.6508 1.75927L8.65078 7.75928C8.27629 8.08027 7.72369 8.08027 7.3492 7.75928L0.349196 1.75927C-0.0701297 1.39985 -0.118691 0.768552 0.240731 0.349227Z" fill="currentColor"/>
    </symbol>

    <symbol viewBox="0 0 32 30" id="messages" xmlns="http://www.w3.org/2000/svg">
        <path fill-rule="evenodd" clip-rule="evenodd" d="M28.3992 7.95425C32.6228 11.8262 33.0955 17.7703 30.0033 22.1088L31.8288 27.8404C32.0216 28.4459 31.5681 29.0625 30.9354 29.0625C30.7907 29.0625 30.6451 29.0291 30.5107 28.9607L24.9587 26.1376C23.3568 26.8256 21.5872 27.1875 19.8113 27.1875C16.3947 27.1875 13.0553 25.8871 10.6401 23.3473C9.38813 23.2008 8.17912 22.8786 7.039 22.3877L1.48731 25.2106C1.151 25.3817 0.743937 25.3346 0.455375 25.0893C0.167312 24.8445 0.0544375 24.4507 0.169188 24.0904L1.99475 18.3588C0.687937 16.5252 0 14.4022 0 12.1875C0 5.87081 5.56556 0.9375 12.1868 0.9375C15.6661 0.9375 18.9876 2.31487 21.2996 4.71644C21.3181 4.73575 21.3351 4.75594 21.3516 4.77631C24.0092 5.08387 26.4694 6.18519 28.3992 7.95425ZM6.59031 20.5125C6.84937 20.3808 7.15481 20.3766 7.41738 20.5013C7.9205 20.7402 8.44106 20.9393 8.97556 21.0985C8.09275 19.5229 7.6245 17.7642 7.6245 15.9375C7.6245 10.0642 12.4471 5.36088 18.4689 4.75537C16.6808 3.50619 14.4765 2.8125 12.1868 2.8125C6.50075 2.8125 1.87487 7.01813 1.87487 12.1875C1.87487 14.1438 2.53119 16.0179 3.77281 17.6073C3.96356 17.8513 4.02138 18.1738 3.92738 18.469L2.63613 22.5231L6.59031 20.5125ZM24.5806 24.2513C24.8467 24.1248 25.1524 24.1326 25.4077 24.2624L29.3618 26.2731L28.0706 22.2189C27.9766 21.9237 28.0344 21.6012 28.2251 21.3572C29.4668 19.7679 30.1231 17.8938 30.1231 15.9375C30.1231 10.7681 25.4972 6.5625 19.8113 6.5625C14.1253 6.5625 9.49938 10.7681 9.49938 15.9375C9.49938 21.1069 14.1253 25.3125 19.8113 25.3125C21.4699 25.3125 23.1191 24.9456 24.5806 24.2513ZM16.9365 15.9375C16.9365 16.4553 16.5168 16.875 15.999 16.875C15.4812 16.875 15.0615 16.4553 15.0615 15.9375C15.0615 15.4197 15.4812 15 15.999 15C16.5168 15 16.9365 15.4197 16.9365 15.9375ZM19.7488 16.875C20.2666 16.875 20.6863 16.4553 20.6863 15.9375C20.6863 15.4197 20.2666 15 19.7488 15C19.231 15 18.8113 15.4197 18.8113 15.9375C18.8113 16.4553 19.231 16.875 19.7488 16.875ZM24.4361 15.9375C24.4361 16.4553 24.0163 16.875 23.4986 16.875C22.9808 16.875 22.5611 16.4553 22.5611 15.9375C22.5611 15.4197 22.9808 15 23.4986 15C24.0163 15 24.4361 15.4197 24.4361 15.9375Z" fill="currentColor"/>
    </symbol>

    <symbol viewBox="0 0 27 27" id="profile" xmlns="http://www.w3.org/2000/svg">
        <path d="M23.046 17.454C21.5756 15.9837 19.8254 14.8952 17.9159 14.2363C19.9611 12.8277 21.3047 10.4703 21.3047 7.80469C21.3047 3.50119 17.8035 0 13.5 0C9.19651 0 5.69531 3.50119 5.69531 7.80469C5.69531 10.4703 7.03893 12.8277 9.08413 14.2363C7.17462 14.8952 5.42447 15.9837 3.95408 17.454C1.40426 20.0039 0 23.394 0 27H2.10938C2.10938 20.7192 7.21918 15.6094 13.5 15.6094C19.7808 15.6094 24.8906 20.7192 24.8906 27H27C27 23.394 25.5957 20.0039 23.046 17.454ZM13.5 13.5C10.3596 13.5 7.80469 10.9451 7.80469 7.80469C7.80469 4.66425 10.3596 2.10938 13.5 2.10938C16.6404 2.10938 19.1953 4.66425 19.1953 7.80469C19.1953 10.9451 16.6404 13.5 13.5 13.5Z" fill="currentColor"/>
    </symbol>

    <symbol viewBox="0 0 16 16" id="plus" xmlns="http://www.w3.org/2000/svg">
        <path fill-rule="evenodd" clip-rule="evenodd" d="M14.4531 6.95312H9.04688V1.54688C9.04688 0.968694 8.57818 0.5 8 0.5C7.42182 0.5 6.95312 0.968694 6.95312 1.54688V6.95312H1.54688C0.968694 6.95312 0.5 7.42182 0.5 8C0.5 8.57818 0.968694 9.04688 1.54688 9.04688H6.95312V14.4531C6.95312 15.0313 7.42182 15.5 8 15.5C8.57818 15.5 9.04688 15.0313 9.04688 14.4531V9.04688H14.4531C15.0313 9.04688 15.5 8.57818 15.5 8C15.5 7.42182 15.0313 6.95312 14.4531 6.95312Z" fill="currentColor"/>
    </symbol>

    <symbol viewBox="0 0 24 30" id="location" xmlns="http://www.w3.org/2000/svg">
        <path d="M12 0C5.7975 0 0.75 5.0825 0.75 11.3312C0.75 20.21 10.9425 29.3775 11.3763 29.7625C11.555 29.9212 11.7775 30 12 30C12.2225 30 12.445 29.9213 12.6237 29.7638C13.0575 29.3775 23.25 20.21 23.25 11.3312C23.25 5.0825 18.2025 0 12 0ZM12 17.5C8.55375 17.5 5.75 14.6962 5.75 11.25C5.75 7.80375 8.55375 5 12 5C15.4462 5 18.25 7.80375 18.25 11.25C18.25 14.6962 15.4462 17.5 12 17.5Z" fill="currentColor"/>
    </symbol>

    <symbol viewBox="0 0 22 22" id="search" xmlns="http://www.w3.org/2000/svg">
        <path d="M17.8759 8.93619C17.8759 10.9082 17.2356 12.7298 16.157 14.2077L21.5971 19.651C22.1343 20.1881 22.1343 21.0602 21.5971 21.5972C21.06 22.1343 20.1877 22.1343 19.6506 21.5972L14.2105 16.1539C12.7323 17.2365 10.9103 17.8724 8.93794 17.8724C4.00059 17.8724 0 13.8726 0 8.93619C0 3.9998 4.00059 0 8.93794 0C13.8753 0 17.8759 3.9998 17.8759 8.93619ZM8.93794 15.1228C9.75053 15.1228 10.5552 14.9628 11.3059 14.6519C12.0566 14.341 12.7388 13.8853 13.3134 13.3108C13.888 12.7363 14.3438 12.0543 14.6547 11.3037C14.9657 10.5531 15.1257 9.74863 15.1257 8.93619C15.1257 8.12376 14.9657 7.31928 14.6547 6.56868C14.3438 5.81809 13.888 5.13609 13.3134 4.56161C12.7388 3.98713 12.0566 3.53143 11.3059 3.22052C10.5552 2.90962 9.75053 2.7496 8.93794 2.7496C8.12534 2.7496 7.32071 2.90962 6.56997 3.22052C5.81923 3.53143 5.13709 3.98713 4.5625 4.56161C3.98791 5.13609 3.53212 5.81809 3.22115 6.56868C2.91019 7.31928 2.75013 8.12376 2.75013 8.93619C2.75013 9.74863 2.91019 10.5531 3.22115 11.3037C3.53212 12.0543 3.98791 12.7363 4.5625 13.3108C5.13709 13.8853 5.81923 14.341 6.56997 14.6519C7.32071 14.9628 8.12534 15.1228 8.93794 15.1228Z" fill="currentColor"/>
    </symbol>

    <symbol viewBox="0 0 8 16" id="arrow-right" xmlns="http://www.w3.org/2000/svg">
        <path fill-rule="evenodd" clip-rule="evenodd" d="M0.349227 15.7593C-0.0700992 15.3998 -0.118661 14.7685 0.240761 14.3492L5.68294 8L0.240761 1.65079C-0.118661 1.23146 -0.0700998 0.600163 0.349226 0.240741C0.768552 -0.118681 1.39985 -0.0701199 1.75927 0.349206L7.75928 7.34921C8.08027 7.7237 8.08027 8.2763 7.75928 8.65079L1.75927 15.6508C1.39985 16.0701 0.768552 16.1187 0.349227 15.7593Z" fill="currentColor"/>
    </symbol>

    <symbol viewBox="0 0 8 16" id="arrow-left" xmlns="http://www.w3.org/2000/svg">
        <path fill-rule="evenodd" clip-rule="evenodd" d="M7.65077 0.240762C8.0701 0.600184 8.11866 1.23148 7.75924 1.65081L2.31706 8.00002L7.75924 14.3492C8.11866 14.7686 8.0701 15.3999 7.65077 15.7593C7.23145 16.1187 6.60015 16.0701 6.24073 15.6508L0.240725 8.65081C-0.0802666 8.27632 -0.0802666 7.72372 0.240725 7.34923L6.24073 0.349227C6.60015 -0.0700991 7.23145 -0.118661 7.65077 0.240762Z" fill="currentColor"/>
    </symbol>

    <symbol viewBox="0 0 16 8" id="arrow-top" xmlns="http://www.w3.org/2000/svg">
        <path fill-rule="evenodd" clip-rule="evenodd" d="M0.240762 7.65077C0.600184 8.0701 1.23148 8.11866 1.65081 7.75924L8.00002 2.31706L14.3492 7.75924C14.7686 8.11866 15.3999 8.0701 15.7593 7.65077C16.1187 7.23145 16.0701 6.60015 15.6508 6.24073L8.65081 0.240725C8.27632 -0.0802665 7.72372 -0.0802665 7.34923 0.240725L0.349227 6.24073C-0.0700991 6.60015 -0.118661 7.23145 0.240762 7.65077Z" fill="currentColor"/>
    </symbol>

    <symbol viewBox="0 0 22 18" id="email" xmlns="http://www.w3.org/2000/svg">
        <path fill-rule="evenodd" clip-rule="evenodd" d="M9.8765 10.4062L0.861511 4.39648C0.322083 4.03662 0 3.43506 0 2.78711C0 1.66943 0.908234 0.76123 2.02457 0.76123H19.9754C21.0918 0.76123 22 1.66943 22 2.78613C22 3.43506 21.6779 4.03662 21.1385 4.39648L12.1235 10.4062C11.7823 10.6338 11.3911 10.7476 11 10.7476C10.6089 10.7476 10.2177 10.6338 9.8765 10.4062ZM11 12.0366C11.6555 12.0366 12.2913 11.8438 12.8386 11.479L21.8532 5.46924C21.9033 5.43555 21.9521 5.40088 22 5.36475V15.2134C22 16.3223 21.1039 17.2388 19.9747 17.2388H2.02524C0.916321 17.2388 0 16.3423 0 15.2134V5.36475C0.0477295 5.40088 0.0964661 5.43555 0.146484 5.46875L9.16144 11.479C9.7088 11.8438 10.3445 12.0366 11 12.0366Z" fill="currentColor"/>
    </symbol>

    <symbol viewBox="0 0 12 23" id="facebook" xmlns="http://www.w3.org/2000/svg">
        <path d="M7.65708 12.3648H11.3793L11.9637 8.56055H7.65632V6.48134C7.65632 4.90099 8.16957 3.49962 9.63891 3.49962H12V0.179741C11.5852 0.123382 10.7078 0 9.04996 0C5.58819 0 3.55867 1.8393 3.55867 6.0297V8.56055H0V12.3648H3.55867V22.821C4.26344 22.9276 4.97729 23 5.71007 23C6.37245 23 7.01893 22.9391 7.65708 22.8522V12.3648Z" fill="currentColor"/>
    </symbol>

    <symbol viewBox="0 0 20 16" id="twitter" xmlns="http://www.w3.org/2000/svg">
        <path d="M19.6 1.89999C18.9 2.19999 18.1 2.4 17.3 2.5C18.1 2 18.8 1.2 19.1 0.300003C18.3 0.800003 17.5 1.1 16.5 1.3C15.8 0.500003 14.7 0 13.6 0C11.4 0 9.59999 1.8 9.59999 4C9.59999 4.3 9.6 4.59999 9.7 4.89999C6.4 4.69999 3.39999 3.1 1.39999 0.699997C1.09999 1.3 0.899994 2 0.899994 2.7C0.899994 4.1 1.6 5.3 2.7 6C2 6 1.39999 5.8 0.899994 5.5C0.899994 7.4 2.29999 9.09999 4.09999 9.39999C3.79999 9.49999 3.4 9.5 3 9.5C2.7 9.5 2.5 9.49999 2.2 9.39999C2.7 11 4.2 12.2 6 12.2C4.6 13.3 2.9 13.9 1 13.9C0.7 13.9 0.4 13.9 0 13.8C1.8 14.9 3.9 15.6 6.2 15.6C13.6 15.6 17.6 9.5 17.6 4.2V3.7C18.4 3.4 19.1 2.69999 19.6 1.89999Z" fill="currentColor"/>
    </symbol>

    <symbol viewBox="0 0 20 20" id="instagram" xmlns="http://www.w3.org/2000/svg">
        <path d="M10 1.80723C12.6506 1.80723 13.0121 1.80723 14.0964 1.80723C15.0602 1.80723 15.5422 2.04819 15.9036 2.16868C16.3855 2.40964 16.747 2.53012 17.1084 2.89157C17.4699 3.25301 17.7108 3.61446 17.8313 4.09639C17.9518 4.45783 18.0723 4.93976 18.1928 5.90362C18.1928 6.98795 18.1928 7.22892 18.1928 10C18.1928 12.7711 18.1928 13.0121 18.1928 14.0964C18.1928 15.0602 17.9518 15.5422 17.8313 15.9036C17.5904 16.3855 17.4699 16.747 17.1084 17.1084C16.747 17.4699 16.3855 17.7108 15.9036 17.8313C15.5422 17.9518 15.0602 18.0723 14.0964 18.1928C13.0121 18.1928 12.7711 18.1928 10 18.1928C7.22892 18.1928 6.98795 18.1928 5.90362 18.1928C4.93976 18.1928 4.45783 17.9518 4.09639 17.8313C3.61446 17.5904 3.25301 17.4699 2.89157 17.1084C2.53012 16.747 2.28916 16.3855 2.16868 15.9036C2.04819 15.5422 1.92771 15.0602 1.80723 14.0964C1.80723 13.0121 1.80723 12.7711 1.80723 10C1.80723 7.22892 1.80723 6.98795 1.80723 5.90362C1.80723 4.93976 2.04819 4.45783 2.16868 4.09639C2.40964 3.61446 2.53012 3.25301 2.89157 2.89157C3.25301 2.53012 3.61446 2.28916 4.09639 2.16868C4.45783 2.04819 4.93976 1.92771 5.90362 1.80723C6.98795 1.80723 7.3494 1.80723 10 1.80723ZM10 0C7.22892 0 6.98795 0 5.90362 0C4.81928 0 4.09639 0.240965 3.49398 0.481928C2.89157 0.722892 2.28916 1.08434 1.68675 1.68675C1.08434 2.28916 0.843374 2.77109 0.481928 3.49398C0.240965 4.09639 0.120482 4.81928 0 5.90362C0 6.98795 0 7.3494 0 10C0 12.7711 0 13.0121 0 14.0964C0 15.1807 0.240965 15.9036 0.481928 16.506C0.722892 17.1084 1.08434 17.7108 1.68675 18.3133C2.28916 18.9157 2.77109 19.1566 3.49398 19.5181C4.09639 19.759 4.81928 19.8795 5.90362 20C6.98795 20 7.3494 20 10 20C12.6506 20 13.0121 20 14.0964 20C15.1807 20 15.9036 19.759 16.506 19.5181C17.1084 19.2771 17.7108 18.9157 18.3133 18.3133C18.9157 17.7108 19.1566 17.2289 19.5181 16.506C19.759 15.9036 19.8795 15.1807 20 14.0964C20 13.0121 20 12.6506 20 10C20 7.3494 20 6.98795 20 5.90362C20 4.81928 19.759 4.09639 19.5181 3.49398C19.2771 2.89157 18.9157 2.28916 18.3133 1.68675C17.7108 1.08434 17.2289 0.843374 16.506 0.481928C15.9036 0.240965 15.1807 0.120482 14.0964 0C13.0121 0 12.7711 0 10 0Z" fill="currentColor"/>
        <path d="M10 4.81928C7.10843 4.81928 4.81928 7.10843 4.81928 10C4.81928 12.8916 7.10843 15.1807 10 15.1807C12.8916 15.1807 15.1807 12.8916 15.1807 10C15.1807 7.10843 12.8916 4.81928 10 4.81928ZM10 13.3735C8.19277 13.3735 6.62651 11.9277 6.62651 10C6.62651 8.19277 8.07229 6.62651 10 6.62651C11.8072 6.62651 13.3735 8.07229 13.3735 10C13.3735 11.8072 11.8072 13.3735 10 13.3735Z" fill="currentColor"/>
        <path d="M15.3012 5.90362C15.9666 5.90362 16.506 5.3642 16.506 4.6988C16.506 4.03339 15.9666 3.49398 15.3012 3.49398C14.6358 3.49398 14.0964 4.03339 14.0964 4.6988C14.0964 5.3642 14.6358 5.90362 15.3012 5.90362Z" fill="currentColor"/>
    </symbol>

    <symbol viewBox="0 0 15 15" id="linkedin" xmlns="http://www.w3.org/2000/svg">
        <path d="M15 8.7444V14.2601H11.7713V9.08072C11.7713 7.80269 11.3004 6.92826 10.157 6.92826C9.28251 6.92826 8.74439 7.53363 8.5426 8.07175C8.47534 8.27355 8.40807 8.5426 8.40807 8.87892V14.2601H5.17937C5.17937 14.2601 5.24664 5.5157 5.17937 4.64126H8.40807V5.98655C8.81166 5.3139 9.61883 4.3722 11.3004 4.3722C13.3856 4.3722 15 5.78475 15 8.7444ZM1.81614 0C0.739908 0 0 0.739911 0 1.68161C0 2.62332 0.672645 3.36323 1.74888 3.36323C2.89238 3.36323 3.56502 2.62332 3.56502 1.68161C3.63229 0.672646 2.95964 0 1.81614 0ZM0.201793 14.2601H3.43049V4.64126H0.201793V14.2601Z" fill="currentColor"/>
    </symbol>

    <symbol viewBox="0 0 20 20" id="pinterest" xmlns="http://www.w3.org/2000/svg">
        <path d="M10 0C4.5 0 0 4.5 0 10C0 14.125 2.5 17.625 6 19.125C6 18.375 5.99999 17.625 6.12499 16.875C6.37499 16 7.37499 11.375 7.37499 11.375C7.37499 11.375 7.00001 10.75 7.00001 9.75C7.00001 8.25 7.87501 7.125 8.87501 7.125C9.75001 7.125 10.25 7.75 10.25 8.625C10.25 9.5 9.625 10.875 9.375 12.125C9.125 13.125 9.875 14 11 14C12.875 14 14.125 11.625 14.125 8.625C14.125 6.375 12.625 4.75 10 4.75C7 4.75 5.12501 7 5.12501 9.5C5.12501 10.375 5.37501 11 5.75001 11.5C5.87501 11.75 6 11.75 5.875 12C5.875 12.125 5.75 12.625 5.625 12.75C5.5 13 5.37501 13.125 5.12501 13C3.75001 12.375 3.125 10.875 3.125 9.125C3.125 6.25 5.5 2.875 10.25 2.875C14.125 2.875 16.625 5.625 16.625 8.625C16.625 12.5 14.5 15.5 11.25 15.5C10.125 15.5 9.125 14.875 8.75 14.25C8.75 14.25 8.12499 16.5 7.99999 17C7.74999 17.75 7.37501 18.5 7.00001 19.125C7.87501 19.375 8.87499 19.5 9.87499 19.5C15.375 19.5 19.875 15 19.875 9.5C20 4.5 15.5 0 10 0Z" fill="currentColor"/>
    </symbol>

    <symbol viewBox="0 0 20 23" id="tiktok" xmlns="http://www.w3.org/2000/svg">
        <path d="M19.9684 6.27597C19.2785 6.27598 18.5954 6.1401 17.958 5.87609C17.3206 5.61208 16.7414 5.22511 16.2536 4.73728C15.7657 4.24944 15.3788 3.6703 15.1147 3.03291C14.8507 2.39552 14.7148 1.71237 14.7148 1.02246H10.9615V15.7199C10.9608 16.3899 10.7492 17.0428 10.3567 17.5859C9.96422 18.129 9.41076 18.5348 8.77475 18.7458C8.13875 18.9568 7.45248 18.9623 6.8132 18.7614C6.17391 18.5606 5.61406 18.1637 5.21297 17.6269C4.81189 17.0901 4.58992 16.4407 4.57854 15.7707C4.56715 15.1007 4.76693 14.4441 5.14954 13.894C5.53215 13.3439 6.0782 12.9282 6.71029 12.7057C7.34238 12.4833 8.02844 12.4654 8.67124 12.6547V9.00618C7.30517 8.82197 5.9154 9.05891 4.68753 9.68535C3.45966 10.3118 2.45212 11.2979 1.79945 12.5121C1.14678 13.7262 0.880051 15.1106 1.03487 16.4803C1.1897 17.85 1.7587 19.1399 2.66592 20.1777C3.57313 21.2155 4.77536 21.9519 6.11208 22.2884C7.44881 22.625 8.8564 22.5457 10.1469 22.0613C11.4374 21.5768 12.5494 20.7101 13.3343 19.577C14.1193 18.4439 14.5399 17.0983 14.54 15.7199L14.6489 8.29072C16.1911 9.42284 18.0549 10.032 19.968 10.0292L19.9684 6.27597Z" fill="#C90441"/>
        <path d="M18.9762 5.25358C17.5829 5.25354 16.2467 4.70002 15.2615 3.71479C14.2763 2.72955 13.7228 1.3933 13.7229 0H9.96951V14.6974C9.96881 15.3675 9.75723 16.0203 9.36475 16.5635C8.97228 17.1066 8.41881 17.5124 7.78281 17.7234C7.14681 17.9344 6.46053 17.9399 5.82124 17.7391C5.18195 17.5382 4.62209 17.1413 4.221 16.6045C3.8199 16.0677 3.59793 15.4183 3.58654 14.7483C3.57515 14.0783 3.77492 13.4217 4.15753 12.8716C4.54014 12.3215 5.08619 11.9058 5.71828 11.6833C6.35037 11.4609 7.03644 11.443 7.67925 11.6323V7.98371C6.31317 7.79951 4.9234 8.03644 3.69553 8.66289C2.46765 9.28933 1.46011 10.2755 0.807446 11.4896C0.154777 12.7037 -0.111954 14.0881 0.0428692 15.4578C0.197692 16.8275 0.766701 18.1174 1.67391 19.1552C2.58113 20.193 3.78336 20.9294 5.12009 21.266C6.45681 21.6025 7.8644 21.5233 9.1549 21.0388C10.4454 20.5543 11.5574 19.6876 12.3424 18.5545C13.1273 17.4214 13.5479 16.0758 13.548 14.6974L13.6575 7.26833C15.1997 8.40042 17.0635 9.00955 18.9766 9.0067L18.9762 5.25358Z" fill="#00C8D4"/>
        <path d="M18.9762 6.18203C17.6776 5.93215 16.521 5.2017 15.7372 4.1365C14.7467 3.36126 14.0672 2.25627 13.8225 1.02246H10.9617V15.7199C10.9617 16.4174 10.7334 17.0958 10.3117 17.6514C9.88995 18.207 9.29802 18.6094 8.62622 18.7971C7.95441 18.9848 7.23963 18.9476 6.59099 18.691C5.94235 18.4344 5.39548 17.9727 5.03385 17.3762C4.39077 16.9576 3.91977 16.3216 3.70692 15.5844C3.49406 14.8472 3.55356 14.0581 3.87455 13.3611C4.19553 12.6642 4.75657 12.106 5.45513 11.7886C6.1537 11.4711 6.94317 11.4157 7.67926 11.6323V8.94737C6.41668 8.96363 5.18377 9.33249 4.11971 10.0123C3.05565 10.6921 2.2028 11.6559 1.65743 12.7947C1.11205 13.9335 0.895864 15.2021 1.03327 16.4573C1.17068 17.7125 1.6562 18.9043 2.43505 19.8982C3.42382 20.7232 4.62729 21.2493 5.9044 21.4148C7.1815 21.5802 8.47931 21.3782 9.64568 20.8323C10.812 20.2865 11.7986 19.4194 12.4898 18.3328C13.181 17.2463 13.5481 15.9852 13.548 14.6974L13.6575 7.26832C15.1997 8.40041 17.0635 9.00954 18.9766 9.00669L18.9762 6.18203Z" fill="white"/>
    </symbol>

    <symbol viewBox="0 0 32 27" id="paw" xmlns="http://www.w3.org/2000/svg">
        <path fill-rule="evenodd" clip-rule="evenodd" d="M15.2643 4.12763C15.6169 6.58227 14.0816 8.96046 11.8412 9.42931C9.60111 9.8979 7.49185 8.28167 7.13928 5.82703C6.78624 3.37172 8.32167 0.992942 10.5614 0.524614C12.802 0.0560951 14.9113 1.67233 15.2643 4.12763ZM6.65402 15.1129C7.52671 14.5909 8.09619 13.7028 8.25799 12.6124C8.41248 11.5745 8.17474 10.4711 7.58868 9.50482C7.00224 8.5388 6.13154 7.81506 5.13665 7.4664C4.09136 7.0998 3.03594 7.18607 2.16483 7.70863C0.412942 8.75841 -0.00591774 11.2737 1.23148 13.3169C2.2188 14.9428 3.96318 15.7847 5.51702 15.5288C5.91391 15.4636 6.29821 15.3268 6.65402 15.1129ZM21.0877 12.5107C19.4233 10.7001 17.001 9.86205 14.6078 10.2697C12.2152 10.6775 10.2387 12.2647 9.32019 14.5155L7.10747 19.9394C6.74003 20.8392 6.67454 21.8176 6.9164 22.7685C7.15853 23.7198 7.68663 24.5542 8.4432 25.1815C9.19977 25.8087 10.114 26.1696 11.0862 26.2258C12.0588 26.2817 12.9986 26.0268 13.8036 25.4894L13.8575 25.4533C15.8866 24.1199 18.4076 23.6994 20.7864 24.2999C21.3995 24.4546 22.0243 24.4791 22.6306 24.376C22.9604 24.3197 23.2851 24.2255 23.6001 24.094C24.4936 23.7201 25.2235 23.0794 25.7112 22.24C26.1982 21.4012 26.3973 20.4427 26.2862 19.469C26.175 18.4954 25.7644 17.5982 25.0988 16.8739L21.0877 12.5107ZM19.4355 9.1873L19.4358 9.18768C19.8251 9.2436 20.2105 9.23488 20.5842 9.16832C22.3283 8.85693 23.8054 7.286 24.1121 5.22277C24.2883 4.03509 24.0557 2.85405 23.4564 1.89759C22.8295 0.896507 21.8811 0.257543 20.7857 0.0989844C19.6904 -0.0595742 18.5962 0.283172 17.7044 1.06436C16.8524 1.811 16.2863 2.8763 16.1101 4.06399C15.7381 6.56934 17.2297 8.86779 19.4355 9.1873ZM29.0717 6.1116L29.0728 6.11216C31.0848 7.18781 31.8767 9.89903 30.8377 12.1566C30.175 13.5918 28.9301 14.5031 27.5937 14.7004C26.8272 14.8139 26.0303 14.6921 25.2964 14.2997C23.2846 13.2245 22.4928 10.5133 23.5314 8.25599C24.5723 5.99953 27.0573 5.03765 29.0717 6.1116Z" fill="currentColor"/>
    </symbol>

    <symbol viewBox="0 0 70 35" id="logo-mobile" xmlns="http://www.w3.org/2000/svg">
        <path d="M29.5006 15.0938H25.3585V0.227806H27.0103C27.4525 0.227806 28.1199 0.210893 29.0125 0.177069C29.9052 0.134788 30.6393 0.113647 31.215 0.113647C32.8334 0.113647 34.0598 0.549143 34.8941 1.42013C35.7283 2.29112 36.1454 3.59761 36.1454 5.33959C36.1454 6.38816 36.0078 7.34371 35.7325 8.20624C35.4655 9.06032 35.1026 9.76219 34.6438 10.3118C34.1849 10.8615 33.6635 11.2843 33.0795 11.5803C32.4956 11.8762 31.8782 12.0242 31.2275 12.0242C31.1441 12.0242 31.0565 12.0242 30.9647 12.0242C30.8813 12.0242 30.802 12.0242 30.7269 12.0242C30.6602 12.0158 30.5768 12.0115 30.4767 12.0115C30.3849 12.0031 30.3098 11.9989 30.2514 11.9989C30.2014 11.9904 30.1263 11.9862 30.0262 11.9862C29.9344 11.9777 29.8718 11.9735 29.8385 11.9735C29.8051 11.9735 29.7425 11.9693 29.6507 11.9608C29.559 11.9523 29.5089 11.9481 29.5006 11.9481V15.0938ZM32.0409 4.78148C32.0409 4.15572 31.874 3.64835 31.5403 3.25936C31.2066 2.87037 30.7269 2.67588 30.1012 2.67588H29.5006V9.27173H29.9636C30.6227 9.27173 31.1316 9.04764 31.4903 8.59946C31.8574 8.15128 32.0409 7.50438 32.0409 6.65876V4.78148Z" fill="#29140C"/>
        <path d="M42.8466 8.53604C42.8466 7.4621 42.7924 6.70104 42.6839 6.25286C42.5755 5.80468 42.3753 5.58059 42.0833 5.58059C41.833 5.58059 41.6286 5.6271 41.4701 5.72012C41.3116 5.80468 41.1948 5.94421 41.1197 6.1387C41.0446 6.32474 40.9946 6.51923 40.9695 6.72218C40.9529 6.91667 40.9445 7.16613 40.9445 7.47056V8.53604H42.8466ZM41.8455 15.3602C40.9111 15.3602 40.0977 15.2164 39.4053 14.9289C38.7212 14.6414 38.1789 14.2398 37.7785 13.7239C37.3864 13.2081 37.0986 12.6288 36.915 11.9862C36.7315 11.335 36.6397 10.612 36.6397 9.81716C36.6397 7.92296 37.1153 6.48963 38.0663 5.51717C39.0174 4.5447 40.348 4.05847 42.0582 4.05847C43.7017 4.05847 44.878 4.45169 45.5872 5.23811C46.2963 6.01609 46.6508 7.27183 46.6508 9.00536V10.4133H40.932V10.6543C40.932 11.1532 40.982 11.5634 41.0822 11.8847C41.1906 12.206 41.3449 12.4428 41.5452 12.595C41.7454 12.7472 41.9498 12.8487 42.1583 12.8994C42.3669 12.9502 42.6214 12.9756 42.9217 12.9756C43.2137 12.9756 43.5265 12.9375 43.8602 12.8614C44.2023 12.7853 44.5443 12.6669 44.8864 12.5062C45.2368 12.3456 45.5288 12.1553 45.7623 11.9354L46.5007 13.2166C46.192 13.7239 45.7373 14.151 45.1366 14.4977C44.5443 14.8359 43.9729 15.0642 43.4223 15.1826C42.8716 15.301 42.3461 15.3602 41.8455 15.3602Z" fill="#29140C"/>
        <path d="M50.9347 15.3602C49.8084 15.3602 49.0201 15.0177 48.5695 14.3328C48.1274 13.6478 47.9063 12.4893 47.9063 10.8573V6.5446H47.0429V4.78148L48.5195 4.31216L49.7959 1.35671H51.9984V4.31216H54.0506V6.5446H51.9608V11.2632C51.9608 11.9397 52.0568 12.3878 52.2486 12.6077C52.4405 12.8276 52.7367 12.9375 53.1371 12.9375C53.3123 12.9375 53.4708 12.9164 53.6126 12.8741C53.7545 12.8318 53.8713 12.7726 53.963 12.6965V14.4216C53.8379 14.5484 53.6752 14.6753 53.475 14.8021C53.2748 14.9205 52.9411 15.0431 52.4739 15.1699C52.015 15.2968 51.502 15.3602 50.9347 15.3602Z" fill="#29140C"/>
        <path d="M58.4466 15.3602C57.6624 15.3602 56.8699 15.2291 56.069 14.967C55.2681 14.6964 54.755 14.4343 54.5298 14.1806L54.8551 12.1384C55.1388 12.4174 55.6101 12.6584 56.2692 12.8614C56.9366 13.0643 57.6165 13.1658 58.309 13.1658C58.8095 13.1658 59.1516 13.1024 59.3351 12.9756C59.527 12.8487 59.6229 12.6711 59.6229 12.4428C59.6229 12.2229 59.4561 12.0285 59.1224 11.8593C58.7887 11.6818 58.2464 11.4788 57.4956 11.2505C55.5517 10.6585 54.5798 9.4324 54.5798 7.57203C54.5798 6.81097 54.7967 6.15984 55.2305 5.61864C55.6644 5.06899 56.2191 4.67155 56.8949 4.42632C57.5706 4.18109 58.3256 4.05847 59.1599 4.05847C60.5865 4.05847 61.6376 4.32484 62.3134 4.85759C62.4636 5.00134 62.5386 5.07322 62.5386 5.07322L61.988 6.88708C61.4374 6.33742 60.6782 6.0626 59.7105 6.0626C58.918 6.0626 58.5217 6.29937 58.5217 6.77292C58.5217 6.90822 58.5509 7.02238 58.6093 7.11539C58.6677 7.19996 58.7636 7.27606 58.8971 7.34371C59.0389 7.40291 59.1766 7.45364 59.3101 7.49592C59.4435 7.52975 59.6312 7.58048 59.8732 7.64813C60.1151 7.70733 60.3237 7.7623 60.4989 7.81303C61.475 8.14283 62.1841 8.60792 62.6262 9.20831C63.0684 9.8087 63.2895 10.5571 63.2895 11.4534C63.2895 14.0579 61.6752 15.3602 58.4466 15.3602Z" fill="#29140C"/>
        <path d="M13.8441 15.4183C12.2824 14.9971 10.6545 15.2199 9.25611 16.043C6.38999 17.7337 5.42045 21.5009 7.09489 24.4406L7.52137 25.1894C8.12455 26.2483 9.20471 26.8911 10.4109 26.9088C11.617 26.9265 12.7151 26.3157 13.3483 25.2749C13.7333 24.6419 14.4011 24.2511 15.1345 24.2296C15.7122 24.2127 16.2587 24.0528 16.7362 23.7733C17.2553 23.4694 17.6929 23.0242 17.9992 22.468C18.5871 21.4004 18.5781 20.1307 17.9749 19.0718L17.519 18.2714C16.7109 16.8528 15.4059 15.8396 13.8441 15.4183Z" fill="#FFCA42"/>
        <path d="M2.94179 17.9676L2.54023 17.9248C1.27907 17.7904 0.145225 18.7211 0.0127227 19.9994C-0.119815 21.2777 0.798316 22.427 2.05949 22.5614L2.46104 22.6042C2.96173 22.6575 3.44235 22.543 3.84825 22.3054C4.46466 21.9447 4.90867 21.3003 4.98862 20.5295C5.12107 19.2512 4.20291 18.1019 2.94179 17.9676Z" fill="#FFCA42"/>
        <path d="M17.3224 9.93362C16.1639 9.41082 14.8017 9.94079 14.286 11.115L14.1218 11.4889C13.6061 12.6631 14.1289 14.0438 15.2874 14.5666C15.986 14.8819 16.7584 14.8143 17.3749 14.4536C17.7807 14.2161 18.1189 13.8513 18.3237 13.3852L18.4879 13.0113C19.0037 11.8371 18.4808 10.4564 17.3224 9.93362Z" fill="#FFCA42"/>
        <path d="M6.66942 13.0573L5.87085 12.3284C5.4144 11.9118 4.82514 11.7003 4.21165 11.7329C3.5982 11.7654 3.03396 12.0383 2.62298 12.501C2.21194 12.9637 2.00324 13.561 2.03536 14.1828C2.06748 14.8046 2.33661 15.3765 2.79313 15.7932L3.5917 16.522C4.35029 17.2143 5.44225 17.2992 6.28196 16.8078C6.48538 16.6887 6.67417 16.5357 6.83963 16.3494C7.25063 15.8868 7.45935 15.2894 7.42723 14.6676C7.39504 14.0458 7.12591 13.4739 6.66942 13.0573Z" fill="#FFCA42"/>
        <path d="M9.59367 8.44601C8.35326 8.71326 7.5587 9.95356 7.82237 11.2108L8.04577 12.2762C8.17349 12.8852 8.52754 13.4074 9.0427 13.7466C9.55789 14.0857 10.1726 14.2012 10.7734 14.0717C11.0154 14.0196 11.2403 13.9304 11.4438 13.8113C12.2835 13.32 12.757 12.3189 12.5448 11.3069L12.3214 10.2415C12.0577 8.98421 10.8341 8.17879 9.59367 8.44601Z" fill="#FFCA42"/>
        <path d="M29.7756 34.7318H25.7462V20.2863L25 19.8264V18.6386L28.9921 18H29.8005V25.5229L29.9497 25.3313C30.0492 25.1951 30.1943 25.0333 30.385 24.846C30.584 24.6587 30.8037 24.4756 31.0441 24.2968C31.2846 24.1094 31.5706 23.9519 31.9023 23.8242C32.2422 23.688 32.5738 23.6198 32.8972 23.6198C34.033 23.6198 34.8331 23.9391 35.2974 24.5778C35.77 25.2164 36.0063 26.285 36.0063 27.7836C36.0063 27.8347 36.0063 27.9113 36.0063 28.0135C35.998 28.1157 35.9939 28.1966 35.9939 28.2562V34.7318H31.8898V27.8858C31.9147 27.0854 31.5831 26.6852 30.8949 26.6852C30.8286 26.6852 30.7622 26.6895 30.6959 26.698C30.6379 26.7065 30.5757 26.7278 30.5094 26.7618C30.443 26.7959 30.3891 26.8214 30.3477 26.8385C30.3145 26.8555 30.2606 26.8896 30.186 26.9406C30.1197 26.9917 30.0741 27.0258 30.0492 27.0428C30.0326 27.0599 29.9829 27.1024 29.9 27.1705C29.8254 27.2387 29.7839 27.277 29.7756 27.2855V34.7318Z" fill="#29140C"/>
        <path d="M43.1271 28.1285C43.1271 27.0471 43.0732 26.2807 42.9654 25.8295C42.8576 25.3782 42.6586 25.1525 42.3684 25.1525C42.1197 25.1525 41.9166 25.1993 41.7591 25.293C41.6015 25.3782 41.4854 25.5187 41.4108 25.7145C41.3362 25.9018 41.2865 26.0977 41.2616 26.302C41.245 26.4979 41.2367 26.7491 41.2367 27.0556V28.1285H43.1271ZM42.1321 35C41.2036 35 40.3952 34.8552 39.707 34.5657C39.0272 34.2762 38.4883 33.8718 38.0903 33.3524C37.7006 32.833 37.4146 32.2497 37.2322 31.6026C37.0498 30.9469 36.9586 30.2189 36.9586 29.4185C36.9586 27.5111 37.4312 26.0679 38.3763 25.0887C39.3215 24.1094 40.6439 23.6198 42.3436 23.6198C43.9769 23.6198 45.1459 24.0158 45.8507 24.8077C46.5554 25.591 46.9078 26.8555 46.9078 28.6011V30.0188H41.2243V30.2615C41.2243 30.7638 41.274 31.1768 41.3735 31.5004C41.4813 31.8239 41.6347 32.0624 41.8337 32.2156C42.0327 32.3689 42.2358 32.4711 42.4431 32.5222C42.6503 32.5733 42.9032 32.5988 43.2017 32.5988C43.4919 32.5988 43.8028 32.5605 44.1344 32.4838C44.4744 32.4072 44.8143 32.288 45.1542 32.1262C45.5024 31.9644 45.7926 31.7729 46.0248 31.5515L46.7585 32.8415C46.4518 33.3524 45.9999 33.7824 45.4029 34.1315C44.8143 34.4721 44.2463 34.702 43.6991 34.8212C43.1519 34.9404 42.6296 35 42.1321 35Z" fill="#29140C"/>
        <path d="M48.1182 34.7318V20.2863L47.372 19.8264V18.6386L51.3641 18H52.1725V34.7318H48.1182Z" fill="#29140C"/>
        <path d="M53.6928 34.7318V20.2863L52.9466 19.8264V18.6386L56.9387 18H57.7471V34.7318H53.6928Z" fill="#29140C"/>
        <path d="M64.4036 33.4673C64.7684 33.4673 65.0461 33.314 65.2368 33.0075C65.4358 32.6925 65.5353 32.2625 65.5353 31.7175V27.6814C65.5353 26.021 65.1539 25.1908 64.3911 25.1908C64.0346 25.1908 63.7569 25.3398 63.5579 25.6379C63.3589 25.9359 63.2594 26.3574 63.2594 26.9023V31.0533C63.2594 32.6627 63.6408 33.4673 64.4036 33.4673ZM64.3041 35C62.4055 35 61.0167 34.5572 60.1379 33.6717C59.259 32.7861 58.8196 31.3727 58.8196 29.4313C58.8196 27.5069 59.2632 26.0594 60.1503 25.0887C61.0374 24.1094 62.4801 23.6198 64.4782 23.6198C66.4266 23.6198 67.8319 24.0882 68.6942 25.0248C69.5647 25.9529 70 27.3621 70 29.2524C70 31.2109 69.5399 32.6584 68.6196 33.595C67.7075 34.5317 66.2691 35 64.3041 35Z" fill="#29140C"/>
    </symbol>

    <symbol viewBox="0 0 70 35" id="logo-mobile-white" xmlns="http://www.w3.org/2000/svg">
        <path d="M29.5006 15.0938H25.3585V0.227806H27.0103C27.4525 0.227806 28.1199 0.210893 29.0125 0.177069C29.9052 0.134788 30.6393 0.113647 31.215 0.113647C32.8334 0.113647 34.0598 0.549142 34.8941 1.42013C35.7283 2.29112 36.1454 3.59761 36.1454 5.33959C36.1454 6.38816 36.0078 7.34371 35.7325 8.20624C35.4655 9.06032 35.1026 9.76219 34.6438 10.3118C34.1849 10.8615 33.6635 11.2843 33.0795 11.5803C32.4956 11.8762 31.8782 12.0242 31.2275 12.0242C31.1441 12.0242 31.0565 12.0242 30.9647 12.0242C30.8813 12.0242 30.802 12.0242 30.7269 12.0242C30.6602 12.0158 30.5768 12.0115 30.4767 12.0115C30.3849 12.0031 30.3098 11.9989 30.2514 11.9989C30.2014 11.9904 30.1263 11.9862 30.0262 11.9862C29.9344 11.9777 29.8718 11.9735 29.8385 11.9735C29.8051 11.9735 29.7425 11.9693 29.6507 11.9608C29.559 11.9523 29.5089 11.9481 29.5006 11.9481V15.0938ZM32.0409 4.78148C32.0409 4.15572 31.874 3.64835 31.5403 3.25936C31.2066 2.87037 30.7269 2.67588 30.1012 2.67588H29.5006V9.27173H29.9636C30.6227 9.27173 31.1316 9.04764 31.4903 8.59946C31.8574 8.15128 32.0409 7.50438 32.0409 6.65876V4.78148Z" fill="#29140C"/>
        <path d="M42.8466 8.53604C42.8466 7.4621 42.7924 6.70104 42.6839 6.25286C42.5755 5.80468 42.3753 5.58059 42.0833 5.58059C41.833 5.58059 41.6286 5.6271 41.4701 5.72012C41.3116 5.80468 41.1948 5.94421 41.1197 6.1387C41.0446 6.32474 40.9946 6.51923 40.9695 6.72218C40.9529 6.91667 40.9445 7.16613 40.9445 7.47056V8.53604H42.8466ZM41.8455 15.3602C40.9111 15.3602 40.0977 15.2164 39.4053 14.9289C38.7212 14.6414 38.1789 14.2398 37.7785 13.7239C37.3864 13.2081 37.0986 12.6288 36.915 11.9862C36.7315 11.335 36.6397 10.612 36.6397 9.81716C36.6397 7.92296 37.1153 6.48963 38.0663 5.51717C39.0174 4.5447 40.348 4.05847 42.0582 4.05847C43.7017 4.05847 44.878 4.45169 45.5872 5.23811C46.2963 6.01609 46.6508 7.27183 46.6508 9.00536V10.4133H40.932V10.6543C40.932 11.1532 40.9821 11.5634 41.0822 11.8847C41.1906 12.206 41.3449 12.4428 41.5452 12.595C41.7454 12.7472 41.9498 12.8487 42.1583 12.8994C42.3669 12.9502 42.6214 12.9756 42.9217 12.9756C43.2137 12.9756 43.5265 12.9375 43.8602 12.8614C44.2023 12.7853 44.5443 12.6669 44.8864 12.5062C45.2368 12.3456 45.5288 12.1553 45.7623 11.9354L46.5007 13.2166C46.192 13.7239 45.7373 14.151 45.1366 14.4977C44.5443 14.8359 43.9729 15.0642 43.4223 15.1826C42.8716 15.301 42.3461 15.3602 41.8455 15.3602Z" fill="#29140C"/>
        <path d="M50.9347 15.3602C49.8084 15.3602 49.02 15.0177 48.5695 14.3328C48.1274 13.6478 47.9063 12.4893 47.9063 10.8573V6.5446H47.0429V4.78148L48.5195 4.31216L49.7959 1.35671H51.9984V4.31216H54.0506V6.5446H51.9608V11.2632C51.9608 11.9397 52.0568 12.3878 52.2486 12.6077C52.4405 12.8276 52.7367 12.9375 53.1371 12.9375C53.3123 12.9375 53.4708 12.9164 53.6126 12.8741C53.7545 12.8318 53.8713 12.7726 53.963 12.6965V14.4216C53.8379 14.5484 53.6752 14.6753 53.475 14.8021C53.2748 14.9205 52.9411 15.0431 52.4739 15.1699C52.015 15.2968 51.502 15.3602 50.9347 15.3602Z" fill="#29140C"/>
        <path d="M58.4466 15.3602C57.6624 15.3602 56.8699 15.2291 56.069 14.967C55.2681 14.6964 54.755 14.4343 54.5298 14.1806L54.8551 12.1384C55.1388 12.4174 55.6101 12.6584 56.2692 12.8614C56.9366 13.0643 57.6165 13.1658 58.309 13.1658C58.8095 13.1658 59.1516 13.1024 59.3351 12.9756C59.527 12.8487 59.6229 12.6711 59.6229 12.4428C59.6229 12.2229 59.4561 12.0285 59.1224 11.8593C58.7886 11.6817 58.2464 11.4788 57.4956 11.2505C55.5517 10.6585 54.5798 9.4324 54.5798 7.57203C54.5798 6.81097 54.7967 6.15984 55.2305 5.61864C55.6644 5.06899 56.2191 4.67155 56.8949 4.42632C57.5706 4.18109 58.3256 4.05847 59.1599 4.05847C60.5865 4.05847 61.6376 4.32484 62.3134 4.85759C62.4636 5.00134 62.5386 5.07322 62.5386 5.07322L61.988 6.88708C61.4374 6.33742 60.6782 6.0626 59.7105 6.0626C58.918 6.0626 58.5217 6.29937 58.5217 6.77292C58.5217 6.90822 58.5509 7.02238 58.6093 7.11539C58.6677 7.19996 58.7636 7.27606 58.8971 7.34371C59.0389 7.40291 59.1766 7.45364 59.3101 7.49592C59.4435 7.52975 59.6312 7.58048 59.8732 7.64813C60.1151 7.70733 60.3237 7.76229 60.4989 7.81303C61.475 8.14282 62.1841 8.60792 62.6262 9.20831C63.0684 9.8087 63.2895 10.5571 63.2895 11.4534C63.2895 14.0579 61.6752 15.3602 58.4466 15.3602Z" fill="#29140C"/>
        <path d="M13.8441 15.4183C12.2824 14.9971 10.6545 15.2199 9.25611 16.043C6.38999 17.7337 5.42045 21.5009 7.09489 24.4406L7.52137 25.1894C8.12454 26.2483 9.20471 26.8911 10.4109 26.9088C11.617 26.9265 12.7151 26.3157 13.3483 25.2749C13.7333 24.6419 14.4011 24.2511 15.1345 24.2296C15.7122 24.2127 16.2587 24.0528 16.7362 23.7733C17.2553 23.4694 17.6929 23.0242 17.9992 22.468C18.5871 21.4003 18.5781 20.1307 17.9749 19.0718L17.519 18.2714C16.7109 16.8528 15.4059 15.8396 13.8441 15.4183Z" fill="white"/>
        <path d="M2.94179 17.9676L2.54023 17.9248C1.27907 17.7904 0.145225 18.7211 0.0127227 19.9994C-0.119815 21.2777 0.798316 22.427 2.05949 22.5614L2.46104 22.6042C2.96173 22.6575 3.44235 22.543 3.84825 22.3054C4.46466 21.9447 4.90867 21.3003 4.98862 20.5295C5.12107 19.2512 4.20291 18.1019 2.94179 17.9676Z" fill="white"/>
        <path d="M17.3224 9.93362C16.1639 9.41082 14.8017 9.94078 14.286 11.115L14.1218 11.4889C13.6061 12.6631 14.1289 14.0438 15.2874 14.5666C15.986 14.8819 16.7584 14.8143 17.3749 14.4536C17.7807 14.2161 18.1189 13.8513 18.3237 13.3852L18.4879 13.0113C19.0037 11.8371 18.4808 10.4564 17.3224 9.93362Z" fill="white"/>
        <path d="M6.66942 13.0573L5.87085 12.3284C5.4144 11.9118 4.82514 11.7003 4.21165 11.7329C3.5982 11.7654 3.03396 12.0383 2.62298 12.501C2.21194 12.9637 2.00324 13.561 2.03536 14.1828C2.06748 14.8046 2.33661 15.3765 2.79313 15.7932L3.5917 16.522C4.35029 17.2143 5.44225 17.2992 6.28196 16.8078C6.48538 16.6887 6.67417 16.5357 6.83963 16.3494C7.25063 15.8868 7.45935 15.2894 7.42723 14.6676C7.39504 14.0458 7.12591 13.4739 6.66942 13.0573Z" fill="white"/>
        <path d="M9.59367 8.44601C8.35326 8.71326 7.5587 9.95356 7.82237 11.2108L8.04577 12.2762C8.17349 12.8852 8.52755 13.4074 9.0427 13.7466C9.55789 14.0857 10.1726 14.2012 10.7734 14.0717C11.0154 14.0196 11.2403 13.9304 11.4438 13.8113C12.2835 13.32 12.757 12.3189 12.5448 11.3069L12.3214 10.2415C12.0577 8.98421 10.834 8.17879 9.59367 8.44601Z" fill="white"/>
        <path d="M29.7756 34.7318H25.7462V20.2863L25 19.8264V18.6386L28.9921 18H29.8005V25.5229L29.9497 25.3313C30.0492 25.1951 30.1943 25.0333 30.385 24.846C30.584 24.6587 30.8037 24.4756 31.0441 24.2968C31.2846 24.1094 31.5706 23.9519 31.9023 23.8242C32.2422 23.688 32.5738 23.6198 32.8972 23.6198C34.033 23.6198 34.8331 23.9391 35.2974 24.5778C35.77 25.2164 36.0063 26.285 36.0063 27.7836C36.0063 27.8347 36.0063 27.9113 36.0063 28.0135C35.998 28.1157 35.9939 28.1966 35.9939 28.2562V34.7318H31.8898V27.8858C31.9147 27.0854 31.5831 26.6852 30.8949 26.6852C30.8286 26.6852 30.7622 26.6895 30.6959 26.698C30.6379 26.7065 30.5757 26.7278 30.5094 26.7618C30.443 26.7959 30.3891 26.8214 30.3477 26.8385C30.3145 26.8555 30.2606 26.8896 30.186 26.9406C30.1197 26.9917 30.0741 27.0258 30.0492 27.0428C30.0326 27.0599 29.9829 27.1024 29.9 27.1705C29.8254 27.2387 29.7839 27.277 29.7756 27.2855V34.7318Z" fill="#29140C"/>
        <path d="M43.1271 28.1285C43.1271 27.0471 43.0732 26.2807 42.9654 25.8295C42.8576 25.3782 42.6586 25.1525 42.3684 25.1525C42.1197 25.1525 41.9166 25.1993 41.7591 25.293C41.6015 25.3782 41.4854 25.5187 41.4108 25.7145C41.3362 25.9018 41.2865 26.0977 41.2616 26.302C41.245 26.4979 41.2367 26.7491 41.2367 27.0556V28.1285H43.1271ZM42.1321 35C41.2036 35 40.3952 34.8552 39.707 34.5657C39.0272 34.2762 38.4883 33.8718 38.0903 33.3524C37.7006 32.833 37.4146 32.2497 37.2322 31.6026C37.0498 30.9469 36.9586 30.2189 36.9586 29.4185C36.9586 27.5111 37.4312 26.0679 38.3763 25.0887C39.3215 24.1094 40.6439 23.6198 42.3436 23.6198C43.9769 23.6198 45.1459 24.0158 45.8507 24.8077C46.5554 25.591 46.9078 26.8555 46.9078 28.6011V30.0188H41.2243V30.2615C41.2243 30.7638 41.274 31.1768 41.3735 31.5004C41.4813 31.8239 41.6347 32.0624 41.8337 32.2156C42.0327 32.3689 42.2358 32.4711 42.4431 32.5222C42.6503 32.5733 42.9032 32.5988 43.2017 32.5988C43.4919 32.5988 43.8028 32.5605 44.1344 32.4838C44.4744 32.4072 44.8143 32.288 45.1542 32.1262C45.5024 31.9644 45.7926 31.7729 46.0248 31.5515L46.7585 32.8415C46.4518 33.3524 45.9999 33.7824 45.4029 34.1315C44.8143 34.4721 44.2463 34.702 43.6991 34.8212C43.1519 34.9404 42.6296 35 42.1321 35Z" fill="#29140C"/>
        <path d="M48.1182 34.7318V20.2863L47.372 19.8264V18.6386L51.3641 18H52.1725V34.7318H48.1182Z" fill="#29140C"/>
        <path d="M53.6928 34.7318V20.2863L52.9466 19.8264V18.6386L56.9387 18H57.7471V34.7318H53.6928Z" fill="#29140C"/>
        <path d="M64.4036 33.4673C64.7684 33.4673 65.0461 33.314 65.2368 33.0075C65.4358 32.6925 65.5353 32.2625 65.5353 31.7175V27.6814C65.5353 26.021 65.1539 25.1908 64.3911 25.1908C64.0346 25.1908 63.7569 25.3398 63.5579 25.6379C63.3589 25.9359 63.2594 26.3574 63.2594 26.9023V31.0533C63.2594 32.6627 63.6408 33.4673 64.4036 33.4673ZM64.3041 35C62.4055 35 61.0167 34.5572 60.1379 33.6717C59.259 32.7861 58.8196 31.3727 58.8196 29.4313C58.8196 27.5069 59.2632 26.0594 60.1503 25.0887C61.0374 24.1094 62.4801 23.6198 64.4782 23.6198C66.4266 23.6198 67.8319 24.0882 68.6942 25.0248C69.5647 25.9529 70 27.3621 70 29.2524C70 31.2109 69.5399 32.6584 68.6196 33.595C67.7075 34.5317 66.2691 35 64.3041 35Z" fill="#29140C"/>
    </symbol>

    <symbol viewBox="0 0 235 37" id="logo" xmlns="http://www.w3.org/2000/svg">
        <path d="M58.4368 35.4528H50.2319V6.00508H53.504C54.3798 6.00508 55.7019 5.97158 57.4701 5.90458C59.2383 5.82083 60.6926 5.77895 61.8328 5.77895C65.0388 5.77895 67.4681 6.64161 69.1206 8.36693C70.7732 10.0922 71.5995 12.6802 71.5995 16.1309C71.5995 18.2079 71.3268 20.1008 70.7814 21.8093C70.2526 23.5012 69.5338 24.8915 68.6248 25.9803C67.7159 27.0691 66.6831 27.9066 65.5263 28.4929C64.3695 29.0791 63.1466 29.3723 61.8576 29.3723C61.6924 29.3723 61.5189 29.3723 61.3371 29.3723C61.1718 29.3723 61.0148 29.3723 60.8661 29.3723C60.7339 29.3555 60.5686 29.3471 60.3703 29.3471C60.1886 29.3304 60.0398 29.322 59.9241 29.322C59.825 29.3053 59.6763 29.2969 59.478 29.2969C59.2962 29.2801 59.1722 29.2718 59.1061 29.2718C59.04 29.2718 58.9161 29.2634 58.7343 29.2466C58.5525 29.2299 58.4534 29.2215 58.4368 29.2215V35.4528ZM63.4689 15.0253C63.4689 13.7858 63.1384 12.7807 62.4773 12.0102C61.8163 11.2397 60.8661 10.8544 59.6267 10.8544H58.4368V23.9199H59.354C60.6595 23.9199 61.6676 23.476 62.3782 22.5883C63.1053 21.7005 63.4689 20.419 63.4689 18.744V15.0253Z" fill="#29140C"/>
        <path d="M84.8736 22.4626C84.8736 20.3353 84.7662 18.8277 84.5514 17.9399C84.3365 17.0522 83.9399 16.6083 83.3615 16.6083C82.8657 16.6083 82.4609 16.7004 82.1469 16.8846C81.8329 17.0522 81.6015 17.3285 81.4528 17.7138C81.3041 18.0823 81.2049 18.4676 81.1554 18.8696C81.1223 19.2549 81.1058 19.749 81.1058 20.352V22.4626H84.8736ZM82.8905 35.9804C81.0397 35.9804 79.4284 35.6957 78.0568 35.1261C76.7017 34.5566 75.6276 33.761 74.8343 32.7392C74.0576 31.7174 73.4875 30.5699 73.1239 29.2969C72.7604 28.0071 72.5786 26.5749 72.5786 25.0003C72.5786 21.2482 73.5205 18.409 75.4045 16.4826C77.2884 14.5563 79.9242 13.5931 83.3119 13.5931C86.5675 13.5931 88.8976 14.372 90.3023 15.9299C91.7069 17.4709 92.4093 19.9584 92.4093 23.3923V26.1813H81.081V26.6587C81.081 27.647 81.1802 28.4594 81.3785 29.0959C81.5933 29.7324 81.899 30.2014 82.2956 30.5029C82.6922 30.8045 83.0971 31.0055 83.5102 31.106C83.9234 31.2065 84.4274 31.2567 85.0223 31.2567C85.6007 31.2567 86.2204 31.1813 86.8815 31.0306C87.559 30.8798 88.2366 30.6453 88.9141 30.3271C89.6082 30.0088 90.1866 29.6319 90.6493 29.1964L92.1118 31.7341C91.5004 32.7392 90.5997 33.5851 89.4099 34.2718C88.2366 34.9419 87.1046 35.3941 86.0139 35.6287C84.9232 35.8632 83.8821 35.9804 82.8905 35.9804Z" fill="#29140C"/>
        <path d="M100.895 35.9804C98.6641 35.9804 97.1024 35.302 96.21 33.9452C95.3342 32.5884 94.8962 30.2936 94.8962 27.0607V18.5178H93.1858V15.0253L96.1109 14.0957L98.6393 8.2413H103.002V14.0957H107.067V18.5178H102.928V27.8647C102.928 29.2048 103.118 30.0926 103.498 30.5281C103.878 30.9636 104.465 31.1813 105.258 31.1813C105.605 31.1813 105.919 31.1395 106.2 31.0557C106.481 30.972 106.712 30.8547 106.894 30.704V34.1211C106.646 34.3723 106.324 34.6236 105.927 34.8749C105.53 35.1094 104.869 35.3523 103.944 35.6035C103.035 35.8548 102.019 35.9804 100.895 35.9804Z" fill="#29140C"/>
        <path d="M115.775 35.9804C114.222 35.9804 112.652 35.7208 111.065 35.2015C109.479 34.6655 108.463 34.1462 108.016 33.6437L108.661 29.5984C109.223 30.1512 110.156 30.6286 111.462 31.0306C112.784 31.4326 114.131 31.6336 115.503 31.6336C116.494 31.6336 117.172 31.508 117.535 31.2567C117.915 31.0055 118.105 30.6537 118.105 30.2014C118.105 29.7659 117.775 29.3806 117.114 29.0456C116.453 28.6939 115.379 28.2919 113.891 27.8396C110.041 26.667 108.116 24.2382 108.116 20.553C108.116 19.0455 108.545 17.7557 109.405 16.6836C110.264 15.5948 111.363 14.8076 112.701 14.3218C114.04 13.836 115.536 13.5931 117.188 13.5931C120.014 13.5931 122.096 14.1208 123.435 15.1761C123.732 15.4608 123.881 15.6032 123.881 15.6032L122.79 19.1962C121.7 18.1074 120.196 17.563 118.279 17.563C116.709 17.563 115.924 18.0321 115.924 18.9701C115.924 19.2381 115.982 19.4642 116.097 19.6485C116.213 19.816 116.403 19.9668 116.668 20.1008C116.948 20.218 117.221 20.3185 117.486 20.4023C117.75 20.4693 118.122 20.5698 118.601 20.7038C119.08 20.8211 119.493 20.9299 119.84 21.0304C121.774 21.6837 123.179 22.605 124.054 23.7943C124.93 24.9836 125.368 26.466 125.368 28.2416C125.368 33.4008 122.171 35.9804 115.775 35.9804Z" fill="#29140C"/>
        <path d="M127.534 23.7943V17.4877H142.357V23.7943H127.534Z" fill="#29140C"/>
        <path d="M153.978 35.4528H145.946V7.03525L144.459 6.13071V3.79399L152.416 2.53769H154.027V17.3369L154.325 16.96C154.523 16.692 154.812 16.3737 155.192 16.0052C155.589 15.6367 156.027 15.2766 156.506 14.9248C156.985 14.5563 157.555 14.2464 158.216 13.9952C158.894 13.7271 159.555 13.5931 160.199 13.5931C162.463 13.5931 164.058 14.2213 164.984 15.4776C165.925 16.7339 166.396 18.8361 166.396 21.7842C166.396 21.8847 166.396 22.0355 166.396 22.2365C166.38 22.4375 166.372 22.5966 166.372 22.7139V35.4528H158.192V21.9852C158.241 20.4107 157.58 19.6234 156.208 19.6234C156.076 19.6234 155.944 19.6318 155.812 19.6485C155.696 19.6653 155.572 19.7071 155.44 19.7741C155.308 19.8411 155.2 19.8914 155.118 19.9249C155.052 19.9584 154.944 20.0254 154.796 20.1259C154.663 20.2264 154.572 20.2934 154.523 20.3269C154.49 20.3604 154.391 20.4442 154.225 20.5782C154.077 20.7122 153.994 20.7876 153.978 20.8043V35.4528Z" fill="#29140C"/>
        <path d="M180.59 22.4626C180.59 20.3353 180.482 18.8277 180.267 17.9399C180.052 17.0522 179.656 16.6083 179.077 16.6083C178.582 16.6083 178.177 16.7004 177.863 16.8846C177.549 17.0522 177.317 17.3285 177.169 17.7138C177.02 18.0823 176.921 18.4676 176.871 18.8696C176.838 19.2549 176.822 19.749 176.822 20.352V22.4626H180.59ZM178.606 35.9804C176.756 35.9804 175.144 35.6957 173.773 35.1261C172.418 34.5566 171.343 33.761 170.55 32.7392C169.774 31.7174 169.203 30.5699 168.84 29.2969C168.476 28.0071 168.295 26.5749 168.295 25.0003C168.295 21.2482 169.236 18.409 171.12 16.4826C173.004 14.5563 175.64 13.5931 179.028 13.5931C182.283 13.5931 184.613 14.372 186.018 15.9299C187.423 17.4709 188.125 19.9584 188.125 23.3923V26.1813H176.797V26.6587C176.797 27.647 176.896 28.4594 177.094 29.0959C177.309 29.7324 177.615 30.2014 178.012 30.5029C178.408 30.8045 178.813 31.0055 179.226 31.106C179.639 31.2065 180.143 31.2567 180.738 31.2567C181.317 31.2567 181.936 31.1813 182.597 31.0306C183.275 30.8798 183.952 30.6453 184.63 30.3271C185.324 30.0088 185.902 29.6319 186.365 29.1964L187.828 31.7341C187.216 32.7392 186.316 33.5851 185.126 34.2718C183.952 34.9419 182.82 35.3941 181.73 35.6287C180.639 35.8632 179.598 35.9804 178.606 35.9804Z" fill="#29140C"/>
        <path d="M190.538 35.4528V7.03525L189.05 6.13071V3.79399L197.008 2.53769H198.619V35.4528H190.538Z" fill="#29140C"/>
        <path d="M201.649 35.4528V7.03525L200.162 6.13071V3.79399L208.119 2.53769H209.73V35.4528H201.649Z" fill="#29140C"/>
        <path d="M222.998 32.9653C223.725 32.9653 224.278 32.6638 224.659 32.0608C225.055 31.441 225.253 30.5951 225.253 29.523V21.5832C225.253 18.3168 224.493 16.6836 222.973 16.6836C222.262 16.6836 221.709 16.9768 221.312 17.563C220.916 18.1493 220.717 18.9785 220.717 20.0505V28.2165C220.717 31.3824 221.477 32.9653 222.998 32.9653ZM222.799 35.9804C219.015 35.9804 216.247 35.1094 214.495 33.3673C212.744 31.6252 211.868 28.8446 211.868 25.0255C211.868 21.2398 212.752 18.3922 214.52 16.4826C216.288 14.5563 219.164 13.5931 223.146 13.5931C227.03 13.5931 229.831 14.5144 231.55 16.357C233.285 18.1828 234.152 20.9551 234.152 24.6737C234.152 28.5264 233.235 31.374 231.401 33.2166C229.583 35.0591 226.716 35.9804 222.799 35.9804Z" fill="#29140C"/>
        <path d="M27.4234 13.9127C24.3299 13.0782 21.1051 13.5195 18.3352 15.1501C12.6577 18.4992 10.7372 25.9615 14.0541 31.7847L14.8989 33.2679C16.0937 35.3655 18.2333 36.6387 20.6226 36.6737C23.0117 36.7088 25.1871 35.499 26.4412 33.4374C27.204 32.1835 28.5268 31.4093 29.9796 31.3667C31.1238 31.3331 32.2063 31.0164 33.1522 30.4628C34.1806 29.8609 35.0473 28.9788 35.6541 27.8771C36.8187 25.7623 36.8007 23.2473 35.606 21.1498L34.7029 19.5642C33.1021 16.7542 30.517 14.7471 27.4234 13.9127Z" fill="#FFCA42"/>
        <path d="M5.82731 18.9624L5.03188 18.8776C2.53366 18.6115 0.287672 20.4551 0.0252021 22.9872C-0.237337 25.5193 1.58136 27.796 4.07957 28.0621L4.87501 28.1469C5.86681 28.2526 6.81885 28.0257 7.62289 27.5552C8.84392 26.8406 9.72343 25.564 9.88182 24.0372C10.1442 21.5051 8.32541 19.2285 5.82731 18.9624Z" fill="#FFCA42"/>
        <path d="M34.3134 3.04818C32.0187 2.01258 29.3203 3.06237 28.2988 5.38842L27.9735 6.12905C26.9518 8.455 27.9875 11.1899 30.2823 12.2255C31.6661 12.85 33.1963 12.7162 34.4174 12.0016C35.2213 11.5311 35.8913 10.8087 36.2969 9.88531L36.6222 9.14468C37.6438 6.81866 36.6081 4.08379 34.3134 3.04818Z" fill="#FFCA42"/>
        <path d="M13.2113 9.23572L11.6294 7.79202C10.7252 6.96668 9.55797 6.54774 8.34273 6.61235C7.12758 6.6768 6.00987 7.21722 5.19578 8.13381C4.38157 9.05037 3.96816 10.2335 4.03178 11.4653C4.09541 12.697 4.62853 13.8299 5.53284 14.6552L7.11469 16.0989C8.61737 17.4702 10.7804 17.6384 12.4437 16.665C12.8467 16.4292 13.2207 16.1261 13.5484 15.7571C14.3626 14.8406 14.776 13.6573 14.7124 12.4256C14.6486 11.1939 14.1155 10.061 13.2113 9.23572Z" fill="#FFCA42"/>
        <path d="M19.0038 0.10142C16.5467 0.630802 14.9728 3.08767 15.4951 5.57813L15.9376 7.6885C16.1906 8.89491 16.892 9.92932 17.9124 10.6011C18.9329 11.2729 20.1505 11.5016 21.3407 11.2452C21.82 11.1419 22.2656 10.9654 22.6688 10.7294C24.332 9.75609 25.27 7.77318 24.8496 5.76841L24.407 3.65797C23.8847 1.16752 21.4609 -0.42792 19.0038 0.10142Z" fill="#FFCA42"/>
    </symbol>

    <symbol viewBox="0 0 235 37" id="logo-white" xmlns="http://www.w3.org/2000/svg">
        <path d="M58.4368 35.4528H50.2319V6.00508H53.504C54.3798 6.00508 55.7019 5.97158 57.4701 5.90458C59.2383 5.82083 60.6926 5.77895 61.8328 5.77895C65.0388 5.77895 67.4681 6.64161 69.1206 8.36693C70.7732 10.0922 71.5995 12.6802 71.5995 16.1309C71.5995 18.2079 71.3268 20.1008 70.7814 21.8093C70.2526 23.5012 69.5338 24.8915 68.6248 25.9803C67.7159 27.0691 66.6831 27.9066 65.5263 28.4929C64.3695 29.0791 63.1466 29.3723 61.8576 29.3723C61.6924 29.3723 61.5189 29.3723 61.3371 29.3723C61.1718 29.3723 61.0148 29.3723 60.8661 29.3723C60.7339 29.3555 60.5686 29.3471 60.3703 29.3471C60.1886 29.3304 60.0398 29.322 59.9241 29.322C59.825 29.3053 59.6763 29.2969 59.478 29.2969C59.2962 29.2801 59.1722 29.2718 59.1061 29.2718C59.04 29.2718 58.9161 29.2634 58.7343 29.2466C58.5525 29.2299 58.4534 29.2215 58.4368 29.2215V35.4528ZM63.4689 15.0253C63.4689 13.7858 63.1384 12.7807 62.4773 12.0102C61.8163 11.2397 60.8661 10.8544 59.6267 10.8544H58.4368V23.9199H59.354C60.6595 23.9199 61.6676 23.476 62.3782 22.5883C63.1053 21.7005 63.4689 20.419 63.4689 18.744V15.0253Z" fill="#29140C"/>
        <path d="M84.8736 22.4626C84.8736 20.3353 84.7662 18.8277 84.5514 17.9399C84.3365 17.0522 83.9399 16.6083 83.3615 16.6083C82.8657 16.6083 82.4609 16.7004 82.1469 16.8846C81.8329 17.0522 81.6015 17.3285 81.4528 17.7138C81.3041 18.0823 81.2049 18.4676 81.1554 18.8696C81.1223 19.2549 81.1058 19.749 81.1058 20.352V22.4626H84.8736ZM82.8905 35.9804C81.0397 35.9804 79.4284 35.6957 78.0568 35.1261C76.7017 34.5566 75.6276 33.761 74.8343 32.7392C74.0576 31.7174 73.4875 30.5699 73.1239 29.2969C72.7604 28.0071 72.5786 26.5749 72.5786 25.0003C72.5786 21.2482 73.5205 18.409 75.4045 16.4826C77.2884 14.5563 79.9242 13.5931 83.3119 13.5931C86.5675 13.5931 88.8976 14.372 90.3023 15.9299C91.7069 17.4709 92.4093 19.9584 92.4093 23.3923V26.1813H81.081V26.6587C81.081 27.647 81.1802 28.4594 81.3785 29.0959C81.5933 29.7324 81.899 30.2014 82.2956 30.5029C82.6922 30.8045 83.0971 31.0055 83.5102 31.106C83.9234 31.2065 84.4274 31.2567 85.0223 31.2567C85.6007 31.2567 86.2204 31.1813 86.8815 31.0306C87.559 30.8798 88.2366 30.6453 88.9141 30.3271C89.6082 30.0088 90.1866 29.6319 90.6493 29.1964L92.1118 31.7341C91.5004 32.7392 90.5997 33.5851 89.4099 34.2718C88.2366 34.9419 87.1046 35.3941 86.0139 35.6287C84.9232 35.8632 83.8821 35.9804 82.8905 35.9804Z" fill="#29140C"/>
        <path d="M100.895 35.9804C98.6641 35.9804 97.1024 35.302 96.21 33.9452C95.3342 32.5884 94.8962 30.2936 94.8962 27.0607V18.5178H93.1858V15.0253L96.1109 14.0957L98.6393 8.2413H103.002V14.0957H107.067V18.5178H102.928V27.8647C102.928 29.2048 103.118 30.0926 103.498 30.5281C103.878 30.9636 104.465 31.1813 105.258 31.1813C105.605 31.1813 105.919 31.1395 106.2 31.0557C106.481 30.972 106.712 30.8547 106.894 30.704V34.1211C106.646 34.3723 106.324 34.6236 105.927 34.8749C105.53 35.1094 104.869 35.3523 103.944 35.6035C103.035 35.8548 102.019 35.9804 100.895 35.9804Z" fill="#29140C"/>
        <path d="M115.775 35.9804C114.222 35.9804 112.652 35.7208 111.065 35.2015C109.479 34.6655 108.463 34.1462 108.016 33.6437L108.661 29.5984C109.223 30.1512 110.156 30.6286 111.462 31.0306C112.784 31.4326 114.131 31.6336 115.503 31.6336C116.494 31.6336 117.172 31.508 117.535 31.2567C117.915 31.0055 118.105 30.6537 118.105 30.2014C118.105 29.7659 117.775 29.3806 117.114 29.0456C116.453 28.6939 115.379 28.2919 113.891 27.8396C110.041 26.667 108.116 24.2382 108.116 20.553C108.116 19.0455 108.545 17.7557 109.405 16.6836C110.264 15.5948 111.363 14.8076 112.701 14.3218C114.04 13.836 115.536 13.5931 117.188 13.5931C120.014 13.5931 122.096 14.1208 123.435 15.1761C123.732 15.4608 123.881 15.6032 123.881 15.6032L122.79 19.1962C121.7 18.1074 120.196 17.563 118.279 17.563C116.709 17.563 115.924 18.0321 115.924 18.9701C115.924 19.2381 115.982 19.4642 116.097 19.6485C116.213 19.816 116.403 19.9668 116.668 20.1008C116.948 20.218 117.221 20.3185 117.486 20.4023C117.75 20.4693 118.122 20.5698 118.601 20.7038C119.08 20.8211 119.493 20.9299 119.84 21.0304C121.774 21.6837 123.179 22.605 124.054 23.7943C124.93 24.9836 125.368 26.466 125.368 28.2416C125.368 33.4008 122.171 35.9804 115.775 35.9804Z" fill="#29140C"/>
        <path d="M127.534 23.7943V17.4877H142.357V23.7943H127.534Z" fill="#29140C"/>
        <path d="M153.978 35.4528H145.946V7.03525L144.459 6.13071V3.79399L152.416 2.53769H154.027V17.3369L154.325 16.96C154.523 16.692 154.812 16.3737 155.192 16.0052C155.589 15.6367 156.027 15.2766 156.506 14.9248C156.985 14.5563 157.555 14.2464 158.216 13.9952C158.894 13.7271 159.555 13.5931 160.199 13.5931C162.463 13.5931 164.058 14.2213 164.984 15.4776C165.925 16.7339 166.396 18.8361 166.396 21.7842C166.396 21.8847 166.396 22.0355 166.396 22.2365C166.38 22.4375 166.372 22.5966 166.372 22.7139V35.4528H158.192V21.9852C158.241 20.4107 157.58 19.6234 156.208 19.6234C156.076 19.6234 155.944 19.6318 155.812 19.6485C155.696 19.6653 155.572 19.7071 155.44 19.7741C155.308 19.8411 155.2 19.8914 155.118 19.9249C155.052 19.9584 154.944 20.0254 154.796 20.1259C154.663 20.2264 154.572 20.2934 154.523 20.3269C154.49 20.3604 154.391 20.4442 154.225 20.5782C154.077 20.7122 153.994 20.7876 153.978 20.8043V35.4528Z" fill="#29140C"/>
        <path d="M180.59 22.4626C180.59 20.3353 180.482 18.8277 180.267 17.9399C180.052 17.0522 179.656 16.6083 179.077 16.6083C178.582 16.6083 178.177 16.7004 177.863 16.8846C177.549 17.0522 177.317 17.3285 177.169 17.7138C177.02 18.0823 176.921 18.4676 176.871 18.8696C176.838 19.2549 176.822 19.749 176.822 20.352V22.4626H180.59ZM178.606 35.9804C176.756 35.9804 175.144 35.6957 173.773 35.1261C172.418 34.5566 171.343 33.761 170.55 32.7392C169.774 31.7174 169.203 30.5699 168.84 29.2969C168.476 28.0071 168.295 26.5749 168.295 25.0003C168.295 21.2482 169.236 18.409 171.12 16.4826C173.004 14.5563 175.64 13.5931 179.028 13.5931C182.283 13.5931 184.613 14.372 186.018 15.9299C187.423 17.4709 188.125 19.9584 188.125 23.3923V26.1813H176.797V26.6587C176.797 27.647 176.896 28.4594 177.094 29.0959C177.309 29.7324 177.615 30.2014 178.012 30.5029C178.408 30.8045 178.813 31.0055 179.226 31.106C179.639 31.2065 180.143 31.2567 180.738 31.2567C181.317 31.2567 181.936 31.1813 182.597 31.0306C183.275 30.8798 183.952 30.6453 184.63 30.3271C185.324 30.0088 185.902 29.6319 186.365 29.1964L187.828 31.7341C187.216 32.7392 186.316 33.5851 185.126 34.2718C183.952 34.9419 182.82 35.3941 181.73 35.6287C180.639 35.8632 179.598 35.9804 178.606 35.9804Z" fill="#29140C"/>
        <path d="M190.538 35.4528V7.03525L189.05 6.13071V3.79399L197.008 2.53769H198.619V35.4528H190.538Z" fill="#29140C"/>
        <path d="M201.649 35.4528V7.03525L200.162 6.13071V3.79399L208.119 2.53769H209.73V35.4528H201.649Z" fill="#29140C"/>
        <path d="M222.998 32.9653C223.725 32.9653 224.278 32.6638 224.659 32.0608C225.055 31.441 225.253 30.5951 225.253 29.523V21.5832C225.253 18.3168 224.493 16.6836 222.973 16.6836C222.262 16.6836 221.709 16.9768 221.312 17.563C220.916 18.1493 220.717 18.9785 220.717 20.0505V28.2165C220.717 31.3824 221.477 32.9653 222.998 32.9653ZM222.799 35.9804C219.015 35.9804 216.247 35.1094 214.495 33.3673C212.744 31.6252 211.868 28.8446 211.868 25.0255C211.868 21.2398 212.752 18.3922 214.52 16.4826C216.288 14.5563 219.164 13.5931 223.146 13.5931C227.03 13.5931 229.831 14.5144 231.55 16.357C233.285 18.1828 234.152 20.9551 234.152 24.6737C234.152 28.5264 233.235 31.374 231.401 33.2166C229.583 35.0591 226.716 35.9804 222.799 35.9804Z" fill="#29140C"/>
        <path d="M27.4234 13.9127C24.3299 13.0782 21.1051 13.5195 18.3352 15.1501C12.6577 18.4992 10.7372 25.9615 14.0541 31.7847L14.8989 33.2679C16.0937 35.3655 18.2333 36.6387 20.6226 36.6737C23.0117 36.7088 25.1871 35.499 26.4412 33.4374C27.204 32.1835 28.5268 31.4093 29.9796 31.3667C31.1238 31.3331 32.2063 31.0164 33.1522 30.4628C34.1806 29.8609 35.0473 28.9788 35.6541 27.8771C36.8187 25.7623 36.8007 23.2473 35.606 21.1498L34.7029 19.5642C33.1021 16.7542 30.517 14.7471 27.4234 13.9127Z" fill="white"/>
        <path d="M5.82731 18.9624L5.03188 18.8776C2.53366 18.6115 0.287672 20.4551 0.0252021 22.9872C-0.237337 25.5193 1.58136 27.796 4.07957 28.0621L4.87501 28.1469C5.86681 28.2526 6.81885 28.0257 7.62289 27.5552C8.84392 26.8406 9.72343 25.564 9.88182 24.0372C10.1442 21.5051 8.32541 19.2285 5.82731 18.9624Z" fill="white"/>
        <path d="M34.3134 3.04818C32.0187 2.01258 29.3203 3.06237 28.2988 5.38842L27.9735 6.12905C26.9518 8.455 27.9875 11.1899 30.2823 12.2255C31.6661 12.85 33.1963 12.7162 34.4174 12.0016C35.2213 11.5311 35.8913 10.8087 36.2969 9.88531L36.6222 9.14468C37.6438 6.81866 36.6081 4.08379 34.3134 3.04818Z" fill="white"/>
        <path d="M13.2113 9.23572L11.6294 7.79202C10.7252 6.96668 9.55797 6.54774 8.34273 6.61235C7.12758 6.6768 6.00987 7.21722 5.19578 8.13381C4.38157 9.05037 3.96816 10.2335 4.03178 11.4653C4.09541 12.697 4.62853 13.8299 5.53284 14.6552L7.11469 16.0989C8.61737 17.4702 10.7804 17.6384 12.4437 16.665C12.8467 16.4292 13.2207 16.1261 13.5484 15.7571C14.3626 14.8406 14.776 13.6573 14.7124 12.4256C14.6486 11.1939 14.1155 10.061 13.2113 9.23572Z" fill="white"/>
        <path d="M19.0038 0.10142C16.5467 0.630802 14.9728 3.08767 15.4951 5.57813L15.9376 7.6885C16.1906 8.89491 16.892 9.92932 17.9124 10.6011C18.9329 11.2729 20.1505 11.5016 21.3407 11.2452C21.82 11.1419 22.2656 10.9654 22.6688 10.7294C24.332 9.75609 25.27 7.77318 24.8496 5.76841L24.407 3.65797C23.8847 1.16752 21.4609 -0.42792 19.0038 0.10142Z" fill="white"/>   
    </symbol>

    <symbol viewBox="0 0 17 19" id="date" xmlns="http://www.w3.org/2000/svg">
        <path fill-rule="evenodd" clip-rule="evenodd" d="M12.6554 0.75V2.115C15.0179 2.33375 16.1642 3.7425 16.3392 5.83375C16.3654 6.07875 16.1554 6.2975 15.9017 6.2975H1.09672C0.851724 6.2975 0.641724 6.0875 0.659224 5.83375C0.834224 3.7425 1.98047 2.33375 4.34297 2.115V0.75C4.34297 0.39125 4.64047 0.09375 4.99922 0.09375C5.35797 0.09375 5.65547 0.39125 5.65547 0.75V2.0625H11.3429V0.75C11.3429 0.39125 11.6404 0.09375 11.9992 0.09375C12.3579 0.09375 12.6554 0.39125 12.6554 0.75ZM1.5 8.29761H15.5C15.9812 8.29761 16.375 8.69137 16.375 9.17262V14.5626C16.375 17.1876 15.0625 18.9376 12 18.9376H5C1.9375 18.9376 0.625 17.1876 0.625 14.5626V9.17262C0.625 8.69137 1.01875 8.29761 1.5 8.29761ZM6.015 15.6583C6.02958 15.6457 6.04417 15.633 6.05875 15.6214C6.21625 15.4551 6.3125 15.2276 6.3125 15.0001C6.3125 14.7726 6.21625 14.5451 6.05875 14.3789L5.9275 14.2739C5.875 14.2389 5.8225 14.2126 5.77 14.1951C5.7175 14.1689 5.665 14.1514 5.6125 14.1426C5.4375 14.1076 5.2625 14.1251 5.105 14.1951C4.99125 14.2389 4.90375 14.3001 4.81625 14.3789C4.65875 14.5451 4.5625 14.7726 4.5625 15.0001C4.5625 15.2276 4.65875 15.4551 4.81625 15.6214C4.90375 15.7001 4.99125 15.7614 5.105 15.8051C5.21 15.8489 5.32375 15.8751 5.4375 15.8751C5.49186 15.8751 5.53933 15.8682 5.59214 15.8606C5.59884 15.8596 5.60561 15.8586 5.6125 15.8576C5.665 15.8489 5.7175 15.8314 5.77 15.8051C5.8225 15.7876 5.875 15.7614 5.9275 15.7264C5.95667 15.7089 5.98583 15.6836 6.015 15.6583ZM5.4375 12.8126C5.665 12.8126 5.8925 12.7164 6.05875 12.5589C6.21625 12.3926 6.3125 12.1651 6.3125 11.9376C6.3125 11.7101 6.21625 11.4826 6.05875 11.3164C5.98 11.2376 5.88375 11.1764 5.77 11.1326C5.44625 10.9926 5.06125 11.0714 4.81625 11.3164C4.65875 11.4826 4.5625 11.7101 4.5625 11.9376C4.5625 12.1651 4.65875 12.3926 4.81625 12.5589C4.9825 12.7164 5.21 12.8126 5.4375 12.8126ZM8.5 15.8751C8.7275 15.8751 8.955 15.7789 9.12125 15.6214C9.27875 15.4551 9.375 15.2276 9.375 15.0001C9.375 14.7726 9.27875 14.5451 9.12125 14.3789C8.7975 14.0551 8.2025 14.0551 7.87875 14.3789C7.72125 14.5451 7.625 14.7726 7.625 15.0001C7.625 15.2276 7.72125 15.4551 7.87875 15.6214C8.045 15.7789 8.2725 15.8751 8.5 15.8751ZM8.99 12.6639L9.12125 12.5589C9.27875 12.3926 9.375 12.1651 9.375 11.9376C9.375 11.7101 9.27875 11.4826 9.12125 11.3164C8.87625 11.0714 8.49125 10.9926 8.1675 11.1326C8.05375 11.1764 7.9575 11.2376 7.87875 11.3164C7.72125 11.4826 7.625 11.7101 7.625 11.9376C7.625 12.1651 7.72125 12.3926 7.87875 12.5589C8.045 12.7164 8.2725 12.8126 8.5 12.8126C8.55436 12.8126 8.60182 12.8057 8.65463 12.7981C8.66133 12.7971 8.66811 12.7961 8.675 12.7951C8.7275 12.7864 8.78 12.7689 8.8325 12.7426C8.885 12.7251 8.9375 12.6989 8.99 12.6639ZM11.5625 15.8751C11.79 15.8751 12.0175 15.7789 12.1837 15.6214C12.3412 15.4551 12.4375 15.2276 12.4375 15.0001C12.4375 14.7726 12.3412 14.5451 12.1837 14.3789C11.86 14.0551 11.265 14.0551 10.9412 14.3789C10.7837 14.5451 10.6875 14.7726 10.6875 15.0001C10.6875 15.2276 10.7837 15.4551 10.9412 15.6214C11.1075 15.7789 11.335 15.8751 11.5625 15.8751ZM12.0525 12.6639L12.1837 12.5589C12.3412 12.3926 12.4375 12.1651 12.4375 11.9376C12.4375 11.7101 12.3412 11.4826 12.1837 11.3164L12.0525 11.2114C12 11.1764 11.9475 11.1501 11.895 11.1326C11.8425 11.1064 11.79 11.0889 11.7375 11.0801C11.5625 11.0451 11.3875 11.0626 11.23 11.1326C11.1163 11.1764 11.0288 11.2376 10.9412 11.3164C10.7837 11.4826 10.6875 11.7101 10.6875 11.9376C10.6875 12.1651 10.7837 12.3926 10.9412 12.5589C11.1075 12.7164 11.335 12.8126 11.5625 12.8126C11.615 12.8126 11.6762 12.8039 11.7375 12.7951C11.79 12.7864 11.8425 12.7689 11.895 12.7426C11.9475 12.7251 12 12.6989 12.0525 12.6639Z" fill="currentColor"/>
    </symbol>

    <symbol viewBox="0 0 393 154" id="error-404" xmlns="http://www.w3.org/2000/svg">
        <path fill-rule="evenodd" clip-rule="evenodd" d="M162.978 143.72C172.962 150.237 184.333 153.496 197.09 153.496C209.848 153.496 221.149 150.237 230.994 143.72C240.84 137.203 248.536 128.189 254.082 116.68C259.768 105.171 262.61 91.928 262.61 76.952C262.61 61.976 259.768 48.7333 254.082 37.224C248.536 25.7146 240.77 16.7013 230.786 10.184C220.941 3.66662 209.57 0.407959 196.674 0.407959C183.917 0.407959 172.616 3.66662 162.77 10.184C152.925 16.7013 145.16 25.7146 139.474 37.224C133.928 48.7333 131.154 61.9066 131.154 76.744C131.154 91.5813 133.997 104.824 139.682 116.472C145.368 127.981 153.133 137.064 162.978 143.72ZM314.565 2.90393L270.053 101.08V123.336H339.525V151H380.085V123.336H392.357V89.2239H380.085V64.4719H339.525V89.2239H318.61L358.661 2.90393H314.565ZM0.912109 101.08L45.4241 2.90393H89.5201L49.4691 89.2239H70.3841V64.4719H110.944V89.2239H123.216V123.336H110.944V151H70.3841V123.336H0.912109V101.08Z" fill="#29140C"/>
        <path fill-rule="evenodd" clip-rule="evenodd" d="M196.193 48.4514C195.858 56.7162 201.762 64.0848 209.356 64.8781C216.948 65.6705 223.397 59.5898 223.731 51.325C224.067 43.0578 218.163 35.6873 210.572 34.8956C202.977 34.1035 196.529 40.1843 196.193 48.4514ZM228.502 81.9714C225.429 80.5365 223.237 77.7834 222.329 74.2202C221.463 70.8291 221.877 67.0869 223.493 63.6811C225.11 60.2762 227.752 57.5784 230.935 56.0829C234.279 54.5107 237.81 54.4377 240.878 55.8752C247.049 58.7623 249.294 66.9656 245.884 74.1666C243.161 79.8975 237.66 83.2847 232.417 82.9646C231.078 82.8832 229.756 82.56 228.502 81.9714ZM179.724 78.248C184.63 71.6735 192.383 68.0685 200.462 68.6067C208.54 69.1455 215.639 73.7393 219.452 80.8952L228.64 98.1392C230.166 101 230.716 104.224 230.237 107.462C229.758 110.7 228.289 113.649 225.992 115.988C223.695 118.327 220.785 119.835 217.578 120.352C214.37 120.869 211.165 120.343 208.311 118.834L208.12 118.732C200.933 114.999 192.425 114.461 184.736 117.263C182.754 117.985 180.689 118.279 178.642 118.143C177.529 118.069 176.42 117.867 175.33 117.538C172.237 116.601 169.598 114.724 167.694 112.105C165.792 109.487 164.805 106.374 164.843 103.106C164.88 99.8372 165.938 96.7205 167.899 94.0907L179.724 78.248ZM184.073 66.6587L184.072 66.66C182.8 66.9781 181.518 67.0803 180.255 66.9867C174.362 66.547 168.926 61.8372 167.206 55.0955C166.217 51.2146 166.587 47.2166 168.25 43.8389C169.99 40.3039 172.919 37.8609 176.5 36.962C180.08 36.0631 183.828 36.828 187.053 39.1166C190.134 41.304 192.375 44.6462 193.364 48.5271C195.451 56.7136 191.284 64.8478 184.073 66.6587ZM151.052 59.7329L151.049 59.7351C144.739 63.989 143.034 73.2547 147.25 80.392C149.938 84.9286 154.379 87.5287 158.88 87.7287C161.462 87.8443 164.065 87.1691 166.366 85.6173C172.676 81.3648 174.38 72.0992 170.166 64.9626C165.944 57.8297 157.371 55.4838 151.052 59.7329Z" fill="#FFCA42"/>
    </symbol>

    <symbol viewBox="0 0 22 21" id="heart" xmlns="http://www.w3.org/2000/svg">
        <path d="M10.4789 19.3772L10.4786 19.377C9.58787 18.5981 8.72938 17.8664 7.97405 17.2227C7.97344 17.2222 7.97283 17.2217 7.97221 17.2212L7.97215 17.2211L7.97216 17.2211L7.96836 17.2178C5.74066 15.3194 3.86497 13.7187 2.56697 12.1526C1.1333 10.4226 0.5 8.82858 0.5 7.11165C0.5 5.41742 1.08044 3.87427 2.11287 2.75439C3.15585 1.62317 4.58463 1 6.14586 1C7.30278 1 8.35865 1.36333 9.29656 2.08871C9.77252 2.45688 10.2081 2.91064 10.5948 3.44547L10.9999 4.00563L11.4051 3.44555C11.7921 2.91061 12.2275 2.45687 12.7035 2.08875L12.7035 2.08873C13.6415 1.36334 14.6973 1 15.8543 1C17.4153 1 18.8443 1.62318 19.8873 2.75439C20.9196 3.87425 21.5 5.41739 21.5 7.11165C21.5 8.82861 20.8668 10.4227 19.4332 12.1524L19.4331 12.1525C18.1351 13.7188 16.2596 15.3192 14.0323 17.2175C13.2751 17.8625 12.4146 18.596 11.5211 19.3773L11.521 19.3774C11.3771 19.5033 11.1921 19.5729 11 19.5729C10.8078 19.5729 10.623 19.5034 10.4789 19.3772Z"/>
    </symbol>


    <symbol viewBox="0 0 15 15" id="clock" xmlns="http://www.w3.org/2000/svg">
        <path fill-rule="evenodd" clip-rule="evenodd" d="M7.5 0C9.50332 0 11.3868 0.780144 12.8033 2.19671C14.2199 3.61324 15 5.49668 15 7.5C15 9.50333 14.2199 11.3867 12.8033 12.8033C11.3868 14.2198 9.50332 15 7.5 15C5.49668 15 3.61324 14.2198 2.19668 12.8033C0.780121 11.3868 0 9.50333 0 7.5C0 5.49668 0.780121 3.61327 2.19668 2.19671C3.61324 0.780144 5.49668 0 7.5 0ZM1.47211 7.5C1.47211 10.8238 4.17618 13.5279 7.5 13.5279C10.8238 13.5279 13.5279 10.8238 13.5279 7.50003C13.5279 4.17624 10.8238 1.47214 7.50003 1.47214C7.49336 1.47214 7.48671 1.47222 7.48006 1.47233C7.47038 1.47248 7.46071 1.47269 7.45102 1.47276C7.44917 1.4727 7.44733 1.47257 7.44549 1.47244C7.44323 1.47229 7.44097 1.47214 7.43868 1.47214C7.43415 1.47214 7.42967 1.47243 7.42521 1.47273C7.42284 1.47289 7.42046 1.47305 7.41808 1.47317C4.141 1.51711 1.48708 4.1889 1.47246 7.47287C1.4724 7.47516 1.47211 7.47739 1.47211 7.4797L1.47231 7.48377L1.47211 7.5ZM11.6347 7.41833C11.6347 7.66342 11.8334 7.86211 12.0785 7.86211H12.6271C12.4509 10.3812 10.4518 12.4054 7.94353 12.621V12.0584C7.94353 11.8133 7.74484 11.6146 7.49975 11.6146C7.25465 11.6146 7.05595 11.8133 7.05595 12.0584V12.621C4.56809 12.4072 2.58101 10.414 2.37695 7.92343H2.85965C3.10474 7.92343 3.30344 7.72474 3.30344 7.47964C3.30344 7.23454 3.10474 7.03585 2.85965 7.03585H2.38058C2.60098 4.58476 4.54903 2.62415 6.99461 2.38451V2.83958C6.99461 3.08467 7.1933 3.28336 7.4384 3.28336C7.68349 3.28336 7.88219 3.08467 7.88219 2.83958V2.3739C10.3645 2.55736 12.3622 4.51138 12.6134 6.97453H12.0785C11.8334 6.97453 11.6347 7.17323 11.6347 7.41833ZM7.81358 7.8138L9.29623 6.33112C9.46955 6.15783 9.46955 5.87681 9.29629 5.70352C9.12297 5.5302 8.84198 5.5302 8.66869 5.70352L7.4998 6.87241L5.23273 4.60535C5.0594 4.43204 4.77842 4.43204 4.60513 4.60535C4.43181 4.77868 4.43181 5.05966 4.60513 5.23296L7.18597 7.8138C7.26918 7.89703 7.38209 7.94379 7.49978 7.94379C7.61749 7.94379 7.73034 7.89703 7.81358 7.8138Z" fill="currentColor"/>
    </symbol>

    <symbol viewBox="0 0 24 24" id="google" xmlns="http://www.w3.org/2000/svg">
        <g clip-path="url(#clip0_547_3521)">
        <path d="M23.0935 9.91355L13.3042 9.91309C12.8719 9.91309 12.5215 10.2634 12.5215 10.6957V13.823C12.5215 14.2552 12.8719 14.6056 13.3041 14.6056H18.8169C18.2132 16.1722 17.0865 17.4842 15.6491 18.3178L17.9997 22.387C21.7704 20.2062 23.9997 16.3799 23.9997 12.0965C23.9997 11.4866 23.9548 11.0506 23.8649 10.5597C23.7965 10.1867 23.4727 9.91355 23.0935 9.91355Z" fill="#167EE6"/>
        <path d="M12.0003 19.3044C9.30242 19.3044 6.94723 17.8304 5.68231 15.6492L1.61328 17.9945C3.68398 21.5834 7.56308 24.0001 12.0003 24.0001C14.177 24.0001 16.2309 23.414 18.0003 22.3927V22.3871L15.6496 18.3179C14.5744 18.9415 13.3302 19.3044 12.0003 19.3044Z" fill="#12B347"/>
        <path d="M18 22.3925V22.387L15.6494 18.3177C14.5741 18.9413 13.33 19.3043 12 19.3043V24C14.1767 24 16.2308 23.4139 18 22.3925Z" fill="#0F993E"/>
        <path d="M4.69566 12C4.69566 10.6702 5.05856 9.42613 5.68205 8.35096L1.61302 6.00562C0.586031 7.76938 0 9.81772 0 12C0 14.1823 0.586031 16.2307 1.61302 17.9945L5.68205 15.6491C5.05856 14.5739 4.69566 13.3298 4.69566 12Z" fill="#FFD500"/>
        <path d="M12.0003 4.69566C13.7595 4.69566 15.3755 5.32078 16.6377 6.36061C16.9491 6.61711 17.4017 6.59859 17.6869 6.31336L19.9027 4.09758C20.2263 3.77395 20.2033 3.24422 19.8575 2.94431C17.7428 1.10967 14.9912 0 12.0003 0C7.56308 0 3.68398 2.41673 1.61328 6.00558L5.68231 8.35092C6.94723 6.16969 9.30242 4.69566 12.0003 4.69566Z" fill="#FF4B26"/>
        <path d="M16.6374 6.36061C16.9488 6.61711 17.4015 6.59859 17.6866 6.31336L19.9024 4.09758C20.226 3.77395 20.2029 3.24422 19.8573 2.94431C17.7425 1.10963 14.991 0 12 0V4.69566C13.7592 4.69566 15.3752 5.32078 16.6374 6.36061Z" fill="#D93F21"/>
        </g>
        <defs>
        <clipPath id="clip0_547_3521">
        <rect width="24" height="24" fill="white"/>
        </clipPath>
        </defs>
    </symbol>

    <symbol viewBox="0 0 24 24" id="apple" xmlns="http://www.w3.org/2000/svg">
        <path fill-rule="evenodd" clip-rule="evenodd" d="M16.7907 0H16.62C15.3427 0.168621 14.0096 0.92636 13.2824 1.77789C12.4983 2.69161 11.8512 3.86247 11.965 5.53076C13.6713 5.6646 14.7262 4.78251 15.4966 3.87301C16.2817 2.95719 16.9277 1.69253 16.7907 0ZM21.7851 17.6641V17.6166C20.1157 16.8241 18.7794 15.4794 18.5939 13.1809C18.3853 10.6505 19.6067 9.16875 21.1517 8.18548C20.3507 6.93347 19.0545 6.12199 17.2281 5.84587C15.8251 5.63473 14.7347 6.03353 13.65 6.43022C13.5598 6.46321 13.4696 6.49618 13.3793 6.52878C13.2817 6.5644 13.1844 6.60364 13.0873 6.64279C12.785 6.76465 12.4847 6.88571 12.1832 6.89448C11.7225 6.90852 11.2417 6.70392 10.8164 6.52292C10.6988 6.47289 10.5855 6.42466 10.478 6.38335C9.95423 6.18522 9.35668 5.98498 8.77177 5.89435C7.407 5.68568 6.18134 6.15255 5.28976 6.70057C3.60039 7.73126 2.32941 9.85799 2.21875 12.4737V13.5476C2.48011 17.2025 3.88493 20.0585 5.70288 22.2695C6.3194 23.0178 7.16566 23.8482 8.21427 24H8.70116C9.31141 23.914 9.81773 23.7186 10.3194 23.5251C10.9916 23.2658 11.6555 23.0096 12.5499 23.0241C13.2844 23.0367 13.8903 23.2722 14.4911 23.5058C15.0981 23.7418 15.7 23.9758 16.424 23.9758C18.0097 23.9758 18.9319 22.6992 19.6738 21.6722C19.712 21.6194 19.7497 21.5673 19.7869 21.516C20.6216 20.361 21.3056 19.1163 21.7851 17.6641Z" fill="black"/>
    </symbol>

    <symbol viewBox="0 0 24 24" id="facebook-2" xmlns="http://www.w3.org/2000/svg">
        <path d="M20.7657 0H3.23405C1.44797 0 0 1.44791 0 3.23405V20.7658C0 22.552 1.44791 23.9999 3.23405 23.9999H11.8806L11.8953 15.4236H9.66721C9.37765 15.4236 9.14264 15.1895 9.14152 14.8999L9.13084 12.1354C9.12972 11.8443 9.36544 11.6077 9.65659 11.6077H11.8806V8.93651C11.8806 5.83661 13.7739 4.14869 16.5392 4.14869H18.8083C19.0986 4.14869 19.3341 4.38406 19.3341 4.67444V7.00547C19.3341 7.29573 19.0988 7.53104 18.8086 7.53122L17.4161 7.53187C15.9122 7.53187 15.621 8.24648 15.621 9.29522V11.6078H18.9255C19.2404 11.6078 19.4847 11.8827 19.4476 12.1954L19.1199 14.9599C19.0885 15.2244 18.8642 15.4237 18.5978 15.4237H15.6357L15.621 24H20.7658C22.5519 24 23.9998 22.5521 23.9998 20.766V3.23405C23.9998 1.44791 22.5519 0 20.7657 0Z" fill="#475993"/>
    </symbol>

    <symbol viewBox="0 0 19 19" id="close-modal" xmlns="http://www.w3.org/2000/svg">
        <path fill-rule="evenodd" clip-rule="evenodd" d="M2.14548 0.714597C1.74931 0.31421 1.10727 0.31421 0.711096 0.714597C0.315051 1.11498 0.315051 1.76415 0.711096 2.16455L7.97981 9.51259L0.905591 16.6641C0.509545 17.0645 0.509545 17.7136 0.905591 18.114C1.30164 18.5144 1.9438 18.5144 2.33985 18.114L9.41406 10.9625L16.4883 18.114C16.8843 18.5144 17.5265 18.5144 17.9225 18.114C18.3186 17.7136 18.3186 17.0645 17.9225 16.6641L10.8483 9.51259L18.117 2.16455C18.5131 1.76415 18.5131 1.11498 18.117 0.714597C17.7209 0.31421 17.0788 0.31421 16.6826 0.714597L9.41406 8.06261L2.14548 0.714597Z" fill="currentColor"/>
    </symbol>

    <symbol viewBox="0 0 114 114" id="success" xmlns="http://www.w3.org/2000/svg">
        <path fill-rule="evenodd" clip-rule="evenodd" d="M0 57C0 25.5683 25.5683 0 57 0C88.4317 0 114 25.5727 114 57C114 88.4272 88.4317 114 57 114C25.5683 114 0 88.4317 0 57ZM8.83032 57C8.83032 83.5618 30.4427 105.17 57 105.17C83.5573 105.17 105.17 83.5618 105.17 57C105.17 30.4382 83.5618 8.83032 57 8.83032C30.4427 8.83032 8.83032 30.4382 8.83032 57ZM76.9171 37.476C78.5593 35.6702 81.3541 35.5422 83.1512 37.1758C84.9569 38.8139 85.0894 41.6042 83.4511 43.4146L53.3794 76.5285C52.5627 77.4292 51.4147 77.9502 50.196 77.9767C50.1696 77.9722 50.1386 77.9722 50.1121 77.9722C48.929 77.9722 47.7987 77.4998 46.9642 76.6521L30.6767 60.0952C28.9636 58.3555 28.9901 55.5608 30.7297 53.8521C32.4648 52.139 35.2552 52.1655 36.9727 53.9051L49.9843 67.1329L76.9171 37.476Z" fill="#FFCA42"/>
    </symbol>
    

    <symbol viewBox="" id="id" xmlns="http://www.w3.org/2000/svg">
        
    </symbol>
</svg>